<svg xmlns="http://www.w3.org/2000/svg" xmlns:xlink="http://www.w3.org/1999/xlink" viewBox="0 0 1351.76 923.21"><defs><style>.cls-1{fill:none;}.cls-2{clip-path:url(#clip-path);}.cls-3{fill:#f2f2f2;}.cls-4{fill:#f8f8f8;}.cls-5{fill:#ebeaeb;}.cls-6{fill:#2c2843;}.cls-7{fill:#e5e5e5;}.cls-8{fill:#25203a;}.cls-9{fill:#383451;}.cls-10{fill:#2f2f47;}.cls-11{fill:#3bb28b;}.cls-12{fill:#2c8d6d;}.cls-13{fill:#2e4752;}.cls-14{fill:#ec6283;}.cls-15{fill:#e55875;}.cls-16{fill:#f7bebe;}.cls-17{fill:#66657d;}.cls-18{fill:#e0aaaa;}.cls-19{fill:#29243d;}.cls-20{fill:#5b576f;}.cls-21{fill:#d8d9d9;}.cls-22{fill:#c89797;}.cls-23{fill:#ce4d68;}.cls-24{fill:#309f7a;}.cls-25{fill:#63607d;}.cls-26{fill:#cccbcb;}.cls-27{fill:#4d4962;}</style><clipPath id="clip-path" transform="translate(0 0)"><rect class="cls-1" width="1351.76" height="923.21"/></clipPath></defs><title>Asset 2</title><g id="Layer_2" data-name="Layer 2"><g id="Layer_1-2" data-name="Layer 1"><g class="cls-2"><path class="cls-3" d="M835.15,304.94a1.76,1.76,0,0,1-1.76,1.76H767.76A1.75,1.75,0,0,1,766,305V282.64a1.75,1.75,0,0,1,1.74-1.77h65.65a1.77,1.77,0,0,1,1.77,1.77Zm0,57.92a1.77,1.77,0,0,1-1.76,1.75H767.76a1.75,1.75,0,0,1-1.77-1.74h0V340.48a1.76,1.76,0,0,1,1.77-1.76h65.63a1.78,1.78,0,0,1,1.76,1.76Zm0,57.91a1.78,1.78,0,0,1-1.76,1.77H767.76a1.77,1.77,0,0,1-1.77-1.77V398.39a1.76,1.76,0,0,1,1.75-1.75h65.65a1.77,1.77,0,0,1,1.76,1.75Zm0,57.91a1.76,1.76,0,0,1-1.76,1.77H767.76a1.75,1.75,0,0,1-1.74-1.73V456.38a1.75,1.75,0,0,1,1.74-1.76h65.65a1.76,1.76,0,0,1,1.77,1.76Zm0,57.93a1.78,1.78,0,0,1-1.76,1.76H767.76a1.76,1.76,0,0,1-1.77-1.76V514.23a1.76,1.76,0,0,1,1.77-1.76h65.63a1.77,1.77,0,0,1,1.76,1.76Zm0,57.91a1.76,1.76,0,0,1-1.76,1.76H767.76a1.75,1.75,0,0,1-1.77-1.73v-22.4a1.75,1.75,0,0,1,1.74-1.76h65.66a1.76,1.76,0,0,1,1.76,1.76Zm0,57.92a1.77,1.77,0,0,1-1.76,1.75H767.76a1.75,1.75,0,0,1-1.77-1.73V630.13a1.76,1.76,0,0,1,1.77-1.76h65.63a1.77,1.77,0,0,1,1.76,1.76ZM679.55,305a1.75,1.75,0,0,1-1.74,1.76H612.15a1.76,1.76,0,0,1-1.76-1.76V282.64a1.76,1.76,0,0,1,1.76-1.77h65.63a1.75,1.75,0,0,1,1.77,1.74V305Zm0,57.92a1.75,1.75,0,0,1-1.75,1.75H612.15a1.75,1.75,0,0,1-1.76-1.75V340.48a1.77,1.77,0,0,1,1.76-1.76h65.63a1.76,1.76,0,0,1,1.77,1.76Zm0,57.91a1.77,1.77,0,0,1-1.77,1.77H612.15a1.77,1.77,0,0,1-1.76-1.77V398.39a1.75,1.75,0,0,1,1.76-1.75h65.63a1.75,1.75,0,0,1,1.77,1.74h0Zm0,57.92a1.75,1.75,0,0,1-1.74,1.76H612.15a1.76,1.76,0,0,1-1.76-1.76V456.38a1.76,1.76,0,0,1,1.76-1.76h65.63a1.75,1.75,0,0,1,1.77,1.74V478.7Zm0,57.92a1.76,1.76,0,0,1-1.77,1.76H612.15a1.76,1.76,0,0,1-1.76-1.76V514.23a1.76,1.76,0,0,1,1.76-1.76h65.63a1.76,1.76,0,0,1,1.77,1.76Zm0,57.91a1.75,1.75,0,0,1-1.74,1.77H612.15a1.77,1.77,0,0,1-1.76-1.77V572.15a1.76,1.76,0,0,1,1.76-1.76h65.63a1.75,1.75,0,0,1,1.77,1.74v22.4Zm0,57.93a1.76,1.76,0,0,1-1.75,1.75H612.15a1.75,1.75,0,0,1-1.76-1.75V630.13a1.76,1.76,0,0,1,1.76-1.76h65.63a1.76,1.76,0,0,1,1.77,1.76ZM573.22,305a1.75,1.75,0,0,1-1.73,1.77H505.83a1.77,1.77,0,0,1-1.77-1.77V282.64a1.77,1.77,0,0,1,1.77-1.77h65.63a1.75,1.75,0,0,1,1.76,1.74V305Zm0,57.93a1.75,1.75,0,0,1-1.75,1.75H505.83a1.77,1.77,0,0,1-1.77-1.75V340.48a1.78,1.78,0,0,1,1.77-1.76h65.63a1.76,1.76,0,0,1,1.76,1.76Zm0,57.91a1.76,1.76,0,0,1-1.76,1.76H505.83a1.78,1.78,0,0,1-1.77-1.76V398.39a1.77,1.77,0,0,1,1.77-1.75h65.63a1.75,1.75,0,0,1,1.76,1.74h0Zm0,57.91a1.74,1.74,0,0,1-1.73,1.76H505.83a1.76,1.76,0,0,1-1.77-1.76V456.38a1.76,1.76,0,0,1,1.77-1.76h65.63a1.75,1.75,0,0,1,1.76,1.74v22.35Zm0,57.92a1.76,1.76,0,0,1-1.76,1.77H505.83a1.79,1.79,0,0,1-1.77-1.77v-22.4a1.78,1.78,0,0,1,1.77-1.76h65.63a1.76,1.76,0,0,1,1.76,1.76Zm0,57.92a1.75,1.75,0,0,1-1.73,1.76H505.83a1.76,1.76,0,0,1-1.77-1.76v-22.4a1.76,1.76,0,0,1,1.77-1.76h65.63a1.75,1.75,0,0,1,1.76,1.74v22.42Zm0,57.92a1.75,1.75,0,0,1-1.75,1.75H505.83a1.77,1.77,0,0,1-1.77-1.75V630.13a1.78,1.78,0,0,1,1.77-1.76h65.63a1.76,1.76,0,0,1,1.76,1.76ZM417.62,305a1.75,1.75,0,0,1-1.74,1.77H350.24a1.76,1.76,0,0,1-1.77-1.74V282.64a1.77,1.77,0,0,1,1.74-1.77h65.7a1.75,1.75,0,0,1,1.75,1.75v0Zm0,57.93a1.75,1.75,0,0,1-1.75,1.75H350.24a1.75,1.75,0,0,1-1.77-1.74h0V340.48a1.76,1.76,0,0,1,1.77-1.76h65.67a1.76,1.76,0,0,1,1.75,1.76Zm0,57.91a1.75,1.75,0,0,1-1.75,1.76H350.24a1.76,1.76,0,0,1-1.77-1.76V398.39a1.76,1.76,0,0,1,1.75-1.75h65.69a1.75,1.75,0,0,1,1.75,1.75Zm0,57.91a1.75,1.75,0,0,1-1.74,1.77H350.24a1.76,1.76,0,0,1-1.77-1.74V456.38a1.76,1.76,0,0,1,1.74-1.76h65.7a1.75,1.75,0,0,1,1.75,1.75h0Zm0,57.93a1.76,1.76,0,0,1-1.75,1.76H350.24a1.76,1.76,0,0,1-1.77-1.76V514.23a1.76,1.76,0,0,1,1.77-1.76h65.67a1.75,1.75,0,0,1,1.75,1.76Zm0,57.91a1.75,1.75,0,0,1-1.74,1.76H350.24a1.75,1.75,0,0,1-1.77-1.74V572.15a1.76,1.76,0,0,1,1.74-1.76h65.7a1.75,1.75,0,0,1,1.75,1.75h0Zm0,57.92a1.75,1.75,0,0,1-1.75,1.75H350.24a1.75,1.75,0,0,1-1.77-1.73V630.13a1.76,1.76,0,0,1,1.77-1.76h65.67a1.75,1.75,0,0,1,1.75,1.76ZM855,258.32H687.32V222.06a8.67,8.67,0,0,0-8.67-8.67H629.41V174.76A5.46,5.46,0,0,0,624,169.3H560.53a5.46,5.46,0,0,0-5.47,5.46V213.4H497.18a8.68,8.68,0,0,0-8.68,8.67v36.27H328.62a1.75,1.75,0,0,0-1.75,1.76V741.51a1.75,1.75,0,0,0,1.75,1.76H434.88a1.76,1.76,0,0,0,1.76-1.76V676.74a1.78,1.78,0,0,1,1.77-1.76h44.88a1.76,1.76,0,0,1,1.76,1.76v64.77a1.76,1.76,0,0,0,1.76,1.76h210a1.76,1.76,0,0,0,1.76-1.76V676.74a1.75,1.75,0,0,1,1.75-1.76h44.89a1.76,1.76,0,0,1,1.76,1.76v64.77a1.77,1.77,0,0,0,1.77,1.76H855a1.76,1.76,0,0,0,1.76-1.76V260.09a1.78,1.78,0,0,0-1.74-1.77" transform="translate(0 0)"/><path class="cls-3" d="M349,57.8,328.72,70.65,341,48.26a20.08,20.08,0,0,0-12.26-4.38h-.32a23.73,23.73,0,0,1-4.21-.31l-6.87,4.35,2.94-5.36a24.38,24.38,0,0,1-12-9.14L296,41.26l7.76-14.13c-7.19-8.63-16.88-13.92-27.55-13.92-12.79,0-24.19,7.6-31.54,19.45a23.52,23.52,0,0,1-20.9,11.24h-.68c-14.12,0-25.57,16-25.57,35.75s11.5,35.77,25.62,35.77a19.34,19.34,0,0,0,8.9-2.23,36.82,36.82,0,0,1,30.94-.61,32.19,32.19,0,0,0,26.32,0,36.85,36.85,0,0,1,30.66.61,19.32,19.32,0,0,0,8.81,2.23c14.12,0,25.57-16,25.57-35.77A45.23,45.23,0,0,0,349,57.8" transform="translate(0 0)"/><path class="cls-4" d="M197.9,85.79l-.33.24c2,15,10.56,26.66,21.37,28.91-10.7-2.48-19.19-14.24-21-29.15m57.6,24.42a37.68,37.68,0,0,1,7.08,2.28,32,32,0,0,0,5.95,2,32.32,32.32,0,0,1-5.54-1.89,36.84,36.84,0,0,0-7.49-2.38" transform="translate(0 0)"/><path class="cls-5" d="M235.38,59.81c-12.79,0-24.18,7.6-31.53,19.45a23.89,23.89,0,0,1-5.95,6.52c1.85,14.92,10.34,26.68,21,29.16a18.75,18.75,0,0,0,12.69-1.85,37,37,0,0,1,23.87-2.88,36.52,36.52,0,0,1,7.48,2.37,31.81,31.81,0,0,0,25.9-.09,37.85,37.85,0,0,1,21.9-2.38C306.59,98.48,298,90.49,288,90.49h-.76a24.16,24.16,0,0,1-20.53-11.45c-7.31-11.73-18.56-19.24-31.35-19.24" transform="translate(0 0)"/><path class="cls-3" d="M1063.56,22.25l-10.14,6.42,6.14-11.18a10.06,10.06,0,0,0-6.11-2.18h-.16a10.66,10.66,0,0,1-2.11-.16l-3.42,2.19,1.47-2.61a12.29,12.29,0,0,1-6-4.55l-6.13,3.92,3.92-7A17.91,17.91,0,0,0,1027.29,0c-6.37,0-12.06,3.8-15.67,9.71a11.77,11.77,0,0,1-10.46,5.6h-.34c-7,0-12.75,8-12.75,17.83S993.78,51,1000.82,51a9.6,9.6,0,0,0,4.45-1.12,18.39,18.39,0,0,1,15.42-.29,16.15,16.15,0,0,0,13.13,0,18.45,18.45,0,0,1,15.3.29,9.57,9.57,0,0,0,4.39,1.09c7,0,12.75-8,12.75-17.83a22.77,22.77,0,0,0-2.7-10.87" transform="translate(0 0)"/><path class="cls-4" d="M988.25,36.16l-.18.13c.93,7.1,4.85,12.73,9.87,14.23-5-1.61-8.82-7.27-9.69-14.36M1019,48.91c.52.17,1,.37,1.54.59a17.31,17.31,0,0,0,1.69.65c-.5-.17-1-.37-1.49-.59s-1.15-.46-1.74-.65" transform="translate(0 0)"/><path class="cls-5" d="M1006.89,23.22c-6.34,0-12,3.8-15.68,9.7a12.16,12.16,0,0,1-3,3.24c.86,7.09,4.71,12.75,9.68,14.36a9.58,9.58,0,0,0,2.67.39,9.47,9.47,0,0,0,4.45-1.11,18.41,18.41,0,0,1,13.91-.89c.58.19,1.16.41,1.72.65a12.53,12.53,0,0,0,1.5.58,15.91,15.91,0,0,0,4.84.77h0a16,16,0,0,0,6.52-1.39,19,19,0,0,1,10.94-1.18c-2.11-5.82-6.42-9.82-11.32-9.82h-.38a12.06,12.06,0,0,1-10.24-5.71c-3.68-5.85-9.34-9.6-15.67-9.6" transform="translate(0 0)"/><path class="cls-3" d="M809.72,139.73l-11.9,7.54L805,134.2a11.84,11.84,0,0,0-7.19-2.61h-.19a13.56,13.56,0,0,1-2.47-.18l-4,2.61,1.73-3.15a14.36,14.36,0,0,1-7.06-5.34l-7.21,4.57,4.56-8.28A21.11,21.11,0,0,0,767,113.64c-7.5,0-14.18,4.47-18.5,11.42a13.76,13.76,0,0,1-12.22,6.53h-.41c-8.28,0-15,9.39-15,20.9s6.7,21,15,21a11.22,11.22,0,0,0,5.23-1.3,21.62,21.62,0,0,1,18.14-.36,18.94,18.94,0,0,0,15.43,0,21.69,21.69,0,0,1,18,.36,11.3,11.3,0,0,0,5.22,1.3c8.29,0,15-9.38,15-21a26.56,26.56,0,0,0-3.18-12.76" transform="translate(0 0)"/><path class="cls-4" d="M721.13,156.13l-.22.17c1.26,9.77,7.39,17.17,14.74,17.17l.72,0h-.48c-7.39,0-13.52-7.53-14.76-17.33M750.57,170c-.45,0-.9,0-1.35,0q.56,0,1.11,0a21.6,21.6,0,0,1,8.7,1.83,19,19,0,0,0,7.71,1.64c.4,0,.79,0,1.19,0l-.95,0a18.89,18.89,0,0,1-7.72-1.64,21.71,21.71,0,0,0-8.69-1.82m32.73,0c-.63,0-1.25,0-1.87.08.58,0,1.17-.07,1.75-.07a22.13,22.13,0,0,1,4.13.39s0,0,0,0a21.5,21.5,0,0,0-4-.37" transform="translate(0 0)"/><path class="cls-5" d="M743.08,141c-7.5,0-14.19,4.46-18.5,11.41a14,14,0,0,1-3.45,3.75c1.24,9.8,7.37,17.33,14.76,17.33h.48a11.19,11.19,0,0,0,4.51-1.28,21.73,21.73,0,0,1,8.34-2.15c.45,0,.9,0,1.35,0a21.71,21.71,0,0,1,8.69,1.82,18.89,18.89,0,0,0,7.72,1.64l.95,0a19,19,0,0,0,6.53-1.6,21.88,21.88,0,0,1,7-1.72c.62-.06,1.24-.08,1.87-.08a21.5,21.5,0,0,1,4,.37C784.85,163.63,779.85,159,774,159h-.5a14.14,14.14,0,0,1-12-6.71c-4.31-6.88-10.93-11.28-18.42-11.28" transform="translate(0 0)"/><path class="cls-6" d="M1237.46,743.59c0,2.24,0,4.49-.15,6.71A157.92,157.92,0,0,1,1234.2,776c-8.58,41.94-33.36,74.55-64.49,84.18a64.27,64.27,0,0,1-19.13,2.91c-48,0-86.87-53.56-86.87-119.53s38.89-119.54,86.87-119.54c45,0,82,47.11,86.44,107.45q.43,6,.44,12.09" transform="translate(0 0)"/><path class="cls-7" d="M1237.32,750.31a159.91,159.91,0,0,1-3.11,25.71c-8.59,42-33.37,74.56-64.5,84.19h0c31.13-9.63,55.91-42.23,64.5-84.18a160.15,160.15,0,0,0,3.11-25.73h0" transform="translate(0 0)"/><path class="cls-8" d="M1182.59,652.81c-30.31,0-54.87,47.08-54.87,105.16,0,49.58,17.88,91.14,42,102.24h0c31.13-9.63,55.91-42.24,64.49-84.18a157.93,157.93,0,0,0,3.11-25.72,192.35,192.35,0,0,0-1.68-19.23c-5.41-39.26-22.35-69.53-43.44-76.67-1.76,3.21-2.71,5.51-2.71,5.51-.49-1.25-1.38-3.83-2.36-6.76a29.65,29.65,0,0,0-4.53-.35" transform="translate(0 0)"/><path class="cls-9" d="M801.13,479.05s235.15-48.34,359.25-3.92c0,0,18.3,9.14,0,24.82,0,0,17.3,18.29-12.9,24.82l-120,7.38L801.13,509.09Z" transform="translate(0 0)"/><path class="cls-10" d="M1030.5,465.69c-12.41,0-24.83.34-37,.93A29.94,29.94,0,0,1,1006.89,485a101.49,101.49,0,0,1,25.05,7.16c.69-.27,1.09-.39,1.09-.39a23.57,23.57,0,0,1,6.59-9.77,2.88,2.88,0,0,1-.5-1.82c.11-1.57,1.42-2.66,2.68-3.67a77.16,77.16,0,0,1-2.34-10.79c-3,0-6-.06-9-.06M948,469.94c-59.68,5.71-105.73,15.18-105.73,15.18V510q7.5.88,13.73,2.23l51.76,5.26,5.71-30.65c9.14-1.24,17.69-2.17,25.71-2.87A29.11,29.11,0,0,1,948,469.94m182.67,6a24.08,24.08,0,0,0,2.15,3.19,6,6,0,0,1,1.34,2c4.52,3.26,8.08,12.15,8.08,12.15,2.66,0,6.83,2.42,11.41,5.85,8.93-11.08-3.79-17.43-3.79-17.43-6.1-2.19-12.52-4.11-19.19-5.79" transform="translate(0 0)"/><path class="cls-11" d="M1071.55,557.43l-15.68-31.35s6.88-31.72-49-41.05c-3.09-13.83-17.12-24.27-34-24.27-16.44,0-30.18,9.93-33.73,23.25-8,.69-16.56,1.64-25.71,2.88l-12.78,68.5-1.59-3.18s8.11-37.47-65-43a27.19,27.19,0,0,0,6.21-17.15c0-16.6-15.5-30-34.62-30s-34.61,13.44-34.61,30a27.47,27.47,0,0,0,7.26,18.4q-10.26,1-21.63,2.5l-14.37,77.08L809,599.23l105.82-15.67-9.37-18.75,60.32,8.28Z" transform="translate(0 0)"/><path class="cls-12" d="M972.92,460.76c-16.43,0-30.17,9.93-33.73,23.25-8,.69-16.57,1.64-25.71,2.88l-7.69,41.24,91.29-4.4a119.3,119.3,0,0,1,9.61-11.79c7.93-12.49,21.35-18.28,25.25-19.75a101.49,101.49,0,0,0-25.05-7.16,30,30,0,0,0-13.43-18.41,38.06,38.06,0,0,0-20.54-5.86" transform="translate(0 0)"/><path class="cls-12" d="M805.7,462.07A39.19,39.19,0,0,0,793.61,464l-10.48,69.92,2.33,0,105.3-5.07c-6.22-6.48-16.81-12.78-34.75-16.58-4.17-.89-8.73-1.64-13.73-2.22q-3.9-.46-8.18-.79a27.21,27.21,0,0,0,6.23-17.15,27.56,27.56,0,0,0-7.59-18.77c-6.35-6.87-16.1-11.27-27-11.27" transform="translate(0 0)"/><path class="cls-11" d="M846.83,488s-10.45-58.64,37.88-59.94S917.37,513,917.37,513s36.58,7.84,39.19,22.21-126.71,18.29-126.71,18.29Z" transform="translate(0 0)"/><path class="cls-6" d="M761.94,797.8c0,69.24-51.47,125.41-115,125.41S532,867,532,797.8s52.11-136.51,115.61-136.51S761.94,728.54,761.94,797.8" transform="translate(0 0)"/><path class="cls-8" d="M647,697.23c-23,0-44,9.8-60,26C571.21,754.4,562,793.4,556.84,821c7.36,49.89,44.92,87.88,90.14,87.88,50.51,0,91.45-47.37,91.45-105.8S697.49,697.23,647,697.23" transform="translate(0 0)"/><path class="cls-6" d="M141.41,660.62c63.49,0,115,56.15,115,125.41s-51.47,125.41-115,125.41S26.45,855.3,26.45,786s51.48-125.41,115-125.41" transform="translate(0 0)"/><path class="cls-6" d="M337.37,486.89s-53.56,2.61-50.95,31.35,45.72,7.84,45.72,7.84Z" transform="translate(0 0)"/><path class="cls-9" d="M783,534.76l22-147.16s5.23-18.29-65.32-18.29c0,0-226-14.37-283.48,9.15,0,0-66.63,24.82-159.38,152.84,0,0,477,11.3,486.13,3.46" transform="translate(0 0)"/><path class="cls-6" d="M775,381.07,734.51,541.75l-25.4-.61-120.18-2.92-268.06-6.54c-.75-12.7,126.2-144.08,126.2-144.08Z" transform="translate(0 0)"/><path class="cls-13" d="M638.88,435.92l-1.08,0c-48.34,1.3-37.89,59.95-37.89,59.95l-8.84,34.2,109.44,2.15c-11.62-7.44-30.06-11.39-30.06-11.39s15.45-84.93-31.57-84.93" transform="translate(0 0)"/><path class="cls-9" d="M1238.11,734.44c-7.84-75.77-56.83-92.1-56.83-92.1-47-2.61-78.38,176.37-78.38,176.37L741,851.37s12.41-152.2-75.12-177-110.38,153.5-114.3,178.32S23.84,850.06,9.47,839.61s-9.14-111-5.23-118.89,14.37-43.11,14.37-43.11c0-8.41,4-19,7.37-26.42,2.36-5.23,4.39-8.85,4.39-8.85,11.36-64.37,70.3-80,74.26-81h.21c15.67-15.68,160.68-26.13,160.68-26.13l54.87-10.45,446.09,8.77,19,.37L1012.24,523l153.37-7.38c35.27,0,53.56,88.83,53.56,88.83,32.66,78.38,18.94,130,18.94,130" transform="translate(0 0)"/><path class="cls-10" d="M507.43,572a97.91,97.91,0,0,0-36.18,7.38c-34.46,13.86-55.35,42.59-46.67,64.16,5.55,13.81,21.87,21.33,41.93,21.33a98.09,98.09,0,0,0,36.18-7.37c34.45-13.87,55.35-42.6,46.67-64.17C543.8,579.54,527.49,572,507.43,572" transform="translate(0 0)"/><path class="cls-3" d="M468.64,574.15c34.46-13.86,69.43-7.61,78.11,14s-12.22,50.3-46.67,64.16-69.43,7.62-78.11-13.95,12.21-50.3,46.67-64.17" transform="translate(0 0)"/><path class="cls-10" d="M107.24,564c-4,1-62.9,16.57-74.25,81,0,0-2,3.61-4.39,8.84a19.63,19.63,0,0,0,5.86.84c15.73,0,37.61-15.82,54.08-40.66,11.59-17.46,18-35.6,18.7-50" transform="translate(0 0)"/><path class="cls-3" d="M103.32,561.4c-.66,14.37-7.11,32.51-18.69,50C66,639.48,40.42,656,24.68,651.19c2.35-5.23,4.39-8.85,4.39-8.85,11.35-64.37,70.29-80,74.25-80.94" transform="translate(0 0)"/></g><polygon class="cls-6" points="286.42 600.53 183.22 600.53 177.99 586.16 303.4 586.16 286.42 600.53"/><rect class="cls-6" x="93.08" y="706.34" width="169.83" height="49.64"/><g class="cls-2"><path class="cls-10" d="M445.8,757.29a23.52,23.52,0,1,0,23.51,23.52,23.52,23.52,0,0,0-23.51-23.52" transform="translate(0 0)"/><path class="cls-3" d="M443.19,753.37a23.52,23.52,0,1,1-23.52,23.52,23.52,23.52,0,0,1,23.52-23.52" transform="translate(0 0)"/><path class="cls-10" d="M18.62,737.7c-6.5,0-11.76,11.11-11.76,24.82s5.26,24.82,11.76,24.82,11.75-11.11,11.75-24.82S25.11,737.7,18.62,737.7" transform="translate(0 0)"/><path class="cls-3" d="M14.7,736.39c6.49,0,11.75,11.11,11.75,24.82S21.19,786,14.7,786,2.94,774.92,2.94,761.21,8.2,736.39,14.7,736.39" transform="translate(0 0)"/><path class="cls-6" d="M1050.65,656.71C1036.28,701.13,1035,770.37,1035,770.37l-5.22,18.29L775,817.4s1.3-128,5.22-188.12c2.76-42.39-7.47-78.27-13.76-95.74l19,.38L1012.24,523c37.89,26.57,51.3,93.83,38.41,133.71" transform="translate(0 0)"/><path class="cls-3" d="M992.57,576.63a6.42,6.42,0,0,0-6,6.83c0,.2,0,.41.07.61a4.6,4.6,0,0,0,2.61,3.41c4.22,2.1,32.31-2.62,43-4.5a7.21,7.21,0,0,0,6-6.44c.14-1.85-.55-3.43-3.26-3.43Z" transform="translate(0 0)"/><path class="cls-6" d="M765.86,528.69s6.53,28.74,37.88,19.6l10.46-40.5L793.29,496Z" transform="translate(0 0)"/><path class="cls-6" d="M804.25,470.33c14.37-8.52,37.17-16,59.72,1.93a26.63,26.63,0,0,1,7.69,32.05c-7.38,16-24.9,33.31-65.8,12.56a26.32,26.32,0,0,1-10-8.81l-.21-.31A26.52,26.52,0,0,1,803.19,471l1.06-.67" transform="translate(0 0)"/><path class="cls-3" d="M647.63,771a26.13,26.13,0,1,1-26.12,26.13A26.12,26.12,0,0,1,647.63,771" transform="translate(0 0)"/><path class="cls-3" d="M1187.16,724c7.94,0,14.37,11.7,14.37,26.13s-6.43,26.12-14.37,26.12-14.37-11.7-14.37-26.12,6.44-26.13,14.37-26.13" transform="translate(0 0)"/><path class="cls-6" d="M645.67,716.8h2.62A15.67,15.67,0,0,1,664,732.47v14.37a15.68,15.68,0,0,1-15.67,15.68h-2.62A15.68,15.68,0,0,1,630,746.84V732.47a15.67,15.67,0,0,1,15.67-15.67" transform="translate(0 0)"/><path class="cls-6" d="M1187.16,666.5h0a9.14,9.14,0,0,1,9.15,9.14v20.91a15.68,15.68,0,0,1-15.68,15.67,9.14,9.14,0,0,1-9.14-9.14v-20.9a15.68,15.68,0,0,1,15.67-15.68" transform="translate(0 0)"/><path class="cls-6" d="M1187.16,833.73h0a15.68,15.68,0,0,1-15.67-15.68V803.68A15.67,15.67,0,0,1,1187.16,788c8.63,0,7.84,7,7.84,15.67v14.37c0,8.62.81,15.68-7.84,15.68" transform="translate(0 0)"/><path class="cls-6" d="M1148,726.59h0a15.68,15.68,0,0,1,15.68,15.68v19.59a10.46,10.46,0,0,1-10.45,10.46,15.68,15.68,0,0,1-15.68-15.68V737A10.45,10.45,0,0,1,1148,726.59" transform="translate(0 0)"/><path class="cls-6" d="M1237.46,743.59c0,2.24,0,4.49-.15,6.71a159,159,0,0,1-3.1,25.73,17.59,17.59,0,0,1-2.62.22,15.67,15.67,0,0,1-15.67-15.68V746.2a15.67,15.67,0,0,1,15.67-15.68,15.38,15.38,0,0,1,4.05.54c.47.13.94.28,1.39.44q.42,6,.43,12.09" transform="translate(0 0)"/><path class="cls-6" d="M711.65,772.32h2.61A15.66,15.66,0,0,1,729.93,788v14.37A15.67,15.67,0,0,1,714.26,818h-2.61A15.68,15.68,0,0,1,696,802.36V788a15.67,15.67,0,0,1,15.68-15.67" transform="translate(0 0)"/><path class="cls-6" d="M583.62,772.32h2.61A15.67,15.67,0,0,1,601.91,788v14.37A15.68,15.68,0,0,1,586.23,818h-2.61a15.68,15.68,0,0,1-15.68-15.68V788a15.67,15.67,0,0,1,15.68-15.67" transform="translate(0 0)"/><path class="cls-6" d="M646.33,840.25h2.61a15.68,15.68,0,0,1,15.68,15.67v14.37A15.68,15.68,0,0,1,648.94,886h-2.61a15.68,15.68,0,0,1-15.68-15.68V855.92a15.68,15.68,0,0,1,15.68-15.67" transform="translate(0 0)"/><path class="cls-14" d="M1103.9,269.13A21.71,21.71,0,0,1,1062,277a21.3,21.3,0,0,1-1.5-7.84,21.69,21.69,0,1,1,43.38,0Z" transform="translate(0 0)"/><path class="cls-14" d="M1064.89,274.54a21.69,21.69,0,0,1,8.43-29.49h0a21.37,21.37,0,0,1,7.84-2.61,21.68,21.68,0,1,0-1.54,43.34,22.36,22.36,0,0,0,3.37-.14,21.69,21.69,0,0,1-18.11-11.1" transform="translate(0 0)"/></g><rect class="cls-14" x="1055.1" y="299.33" width="58.1" height="90.62"/><g class="cls-2"><path class="cls-15" d="M1064,344.27c0,6,.33,11.11.54,14.2a7.48,7.48,0,0,0,2.75-1c2.29-1.44,3.17-4.34,3.47-7,0-.23,0-.49,0-.78a31.26,31.26,0,0,1-6.81-5.41m43.65,1.31a30.92,30.92,0,0,1-8.59,5.7c.07.33.14.66.19,1a6,6,0,0,0,.93,2.75,4.79,4.79,0,0,0,1.5,1.18,21.67,21.67,0,0,0,5.81,2.25c0-.75.08-1.74.12-2.92h0c.08-2.54.13-6,0-9.95" transform="translate(0 0)"/><path class="cls-16" d="M963.28,628.12s-6.19,17-20.9,19.36-23.2,6.16-23.2,6.16L954,676.1l18.59-2.33s2.31-24,10.06-29.43-19.4-16.22-19.4-16.22" transform="translate(0 0)"/><path class="cls-16" d="M1215,628.12s6.19,17,20.9,19.36,23.23,6.2,23.23,6.2l-34.85,22.46-18.59-2.33s-2.31-24-10.06-29.43S1215,628.12,1215,628.12" transform="translate(0 0)"/><path class="cls-17" d="M1045.42,477.86s-9.3,4.65-12.4,13.94c0,0-17,5.42-26.33,20.14,0,0-11.61,12.39-13.17,18.59S974.16,574,974.16,574s-17.8,58.09-27.11,64.29c0,0,29.44-6.2,34.86,23.23,0,0,7,0,14.72-27.11S1023,574,1023,574s6.21-23.24,11.63-27.1,13.94-21.69,21.69-17.05,58.86-.77,58.86-.77,30.21,13.94,31,23.24,6.2,10.06,7,17.81S1182.52,639,1182.52,639s5.42,17,7,20.91c0,0,17-41,39.5-17.83,0,0-.77-15.49-7.75-24.82s-37.17-82.1-37.17-82.1-3.1-10.84-6.2-13.94-27.1-27.88-35.61-27.88c0,0-4.65-11.62-10.07-13.17Z" transform="translate(0 0)"/><path class="cls-17" d="M975.71,668.39a37.73,37.73,0,0,1-36.87-5,73.78,73.78,0,0,0-16.45-9.53c-8.2-3.31-18-5.78-21-.22-5.43,10.06,65.84,34.86,65.84,34.86s9.29-5.44,8.51-20.15" transform="translate(0 0)"/><path class="cls-17" d="M1202.64,668.39a37.74,37.74,0,0,0,36.88-5A73.78,73.78,0,0,1,1256,653.9c8.21-3.31,18-5.78,21-.22,5.43,10.06-65.84,34.86-65.84,34.86s-9.29-5.44-8.52-20.15" transform="translate(0 0)"/><path class="cls-16" d="M1070.74,350.46c-.3,2.69-1.17,5.61-3.48,7-1.87,1.18-4.25,1.07-6.42,1.53a15,15,0,0,0-10.23,8.83,22.91,22.91,0,0,0-1,13.79,52.43,52.43,0,0,0,2,6.62c2.29,6.43,5,12.79,9.27,18.14A76.15,76.15,0,0,0,1073,417.86c2.75,2.25,5.6,4.55,9,5.6a28.12,28.12,0,0,0,7.07.93c2.93.15,6.06.23,8.6-1.23,3.92-2.26,5.1-7.26,7.21-11.26,1.82-3.41,4.51-6.28,6.2-9.76a38.88,38.88,0,0,0,2.61-8.5l3.62-16.09c1.31-5.82,2.51-12.4-.78-17.41a2.74,2.74,0,0,0-1-1,3.5,3.5,0,0,0-2-.21,21.34,21.34,0,0,1-12-2.73,4.79,4.79,0,0,1-1.5-1.18,6,6,0,0,1-.93-2.76,28.87,28.87,0,0,0-1.67-5.82,3.89,3.89,0,0,0-1.14-1.74,3.94,3.94,0,0,0-1.82-.61,149.88,149.88,0,0,0-16.9-1.78c-1.86-.08-4.66-.82-5.93.81s-.82,5.38-1,7.34" transform="translate(0 0)"/><path class="cls-18" d="M1070.79,349.68c0,.28,0,.54,0,.78-.3,2.69-1.17,5.61-3.47,7a7.43,7.43,0,0,1-2.74,1q0,.72.09,1.29c.1,1.2.16,1.87.16,1.87h0v.05a14.68,14.68,0,0,1-3.93,1.44c.94,6.41,1,13.4,1.49,19.69.18,2.56.3,5.13.71,7.66a70,70,0,0,0,2.48,9.78,14,14,0,0,0,1.45,3.49,12.84,12.84,0,0,0,2.13,2.29c2.43,2.25,5,4.56,8.06,5.69a17.39,17.39,0,0,0,5.49.89h.57a29.8,29.8,0,0,0,13-3,14.82,14.82,0,0,0,5-3.65,17.54,17.54,0,0,0,2.83-5.77,115.65,115.65,0,0,0,3.52-15.94l1.59-9.14c.77-4.65,1.9-9.39,2.18-14.1a34,34,0,0,1-4-.86h0s0-.6.1-1.67a21.61,21.61,0,0,1-5.82-2.25,4.9,4.9,0,0,1-1.5-1.18,5.81,5.81,0,0,1-.92-2.75c-.07-.34-.13-.66-.2-1a31,31,0,0,1-28.25-1.6" transform="translate(0 0)"/><path class="cls-3" d="M1060.25,359.71a35.49,35.49,0,0,0-9.33-1.47c-7.47-.19-15.45,2.4-19.77,8.5a20.06,20.06,0,0,0-3,15,31,31,0,0,0,6.8,13.93,42.3,42.3,0,0,1,5.22,6.85c2.07,3.92,2.12,8.6,2.61,13.06,1.31,10.6,5.83,20.58,7.63,31.11s.24,22.76-8.08,29.47c-1.4,1.12-3.08,2.3-3.2,4.09-.2,2.86,3.52,4.09,6.39,4.35,8.55.82,17.33,1.62,25.64-.59,3.45-.91,6.75-2.34,10.25-3,8.9-1.66,17.84,1.74,26.72,3.38a119.89,119.89,0,0,0,19.48,1.59,10.54,10.54,0,0,0,4.49-.59,3.58,3.58,0,0,0,2.27-3.58,5.93,5.93,0,0,0-1.54-2.61c-4.49-5.57-5.86-12.94-7.09-20l-4-23.71c-2.21-12.65-4.26-26.37,1.73-37.74,4.3-8.16,12.22-13.91,16.77-21.95a12.83,12.83,0,0,0,2.06-8.24c-.68-4-4.32-6.93-8.06-8.62a30.34,30.34,0,0,0-22.72-.83c.14,5.66-1.3,11.38-2.24,17l-1.58,9.14a115.68,115.68,0,0,1-3.53,15.94,17.18,17.18,0,0,1-2.84,5.77,14.91,14.91,0,0,1-5,3.65,29.59,29.59,0,0,1-13.26,3,17.07,17.07,0,0,1-5.85-.88c-3.11-1.13-5.63-3.44-8.06-5.68a9.92,9.92,0,0,1-3.58-5.79,71.14,71.14,0,0,1-2.49-9.78c-.4-2.53-.52-5.1-.7-7.66-.58-7.42-.56-15.82-2.09-23.1" transform="translate(0 0)"/><path class="cls-16" d="M1052.39,509.62s-3.1,41,16.26,48,2.33-34.08,2.33-34.08l-6.19-12.4Z" transform="translate(0 0)"/><path class="cls-16" d="M1118.23,509.62s3.09,41-16.27,48-2.32-34.08-2.32-34.08l6.19-12.4Z" transform="translate(0 0)"/><path class="cls-7" d="M1029.91,387.42c1.51,9.79,4.85,31.47,5.44,36.22a80.28,80.28,0,0,0,3.1,13.15s.47,11.48.68,19.78q6,.15,11.87.4a44.36,44.36,0,0,0-.59-10.32c-1.8-10.53-6.32-20.51-7.63-31.11-.49-4.46-.55-9.14-2.61-13.06a42.3,42.3,0,0,0-5.22-6.85,30.46,30.46,0,0,1-5-8.21" transform="translate(0 0)"/><path class="cls-10" d="M1039.13,456.57c0,2.26.09,4.28.09,5.77a28,28,0,0,0,.24,3.41q4.9.08,9.8.22a33.32,33.32,0,0,0,1.74-9q-5.91-.25-11.87-.4" transform="translate(0 0)"/><path class="cls-19" d="M1039.46,465.75a78.62,78.62,0,0,0,2.34,10.79l.53-.42a22.33,22.33,0,0,0,6.93-10.15c-3.27-.1-6.53-.17-9.8-.22" transform="translate(0 0)"/><path class="cls-20" d="M1043.47,484.22a84.28,84.28,0,0,0,3.59,16.07c2,5.47,4,11.57,5.15,15.24,0-3.61.18-5.91.18-5.91l12.39,1.54,5.3,10.61c.81.76,1.66,1.6,2.54,2.53a9.4,9.4,0,0,0,0-13.17s-3.4-15.29-4.39-26.5a51.34,51.34,0,0,1-9.36.77c-4.45,0-8.93-.41-13.35-.84a13.91,13.91,0,0,1-2-.34" transform="translate(0 0)"/><path class="cls-21" d="M1041.07,370.16a9.33,9.33,0,0,0-5.72,2.37l-6.19,10.07.75,4.82a30.83,30.83,0,0,0,5,8.22,41.79,41.79,0,0,1,5.22,6.84c2.07,3.92,2.12,8.6,2.61,13.07,1.31,10.59,5.83,20.57,7.63,31.1A44.31,44.31,0,0,1,1051,457a33.78,33.78,0,0,1-1.74,9,22.33,22.33,0,0,1-6.93,10.15l-.53.42c.73,2.6,1.34,4.39,1.34,4.39.09,1.1.2,2.2.34,3.29a13.57,13.57,0,0,0,2,.34c4.42.43,8.9.85,13.35.85a52.26,52.26,0,0,0,9.36-.78c-.16-1.9-.26-3.67-.26-5.24,0-10.85-8.52-62.71-8.52-62.71s-4.35-46.52-18.38-46.52" transform="translate(0 0)"/><path class="cls-18" d="M1052.39,509.62s-.18,2.3-.19,5.91c.66,2.05,1.06,3.35,1.06,3.35a5.66,5.66,0,0,1,5.26-3.54c2.59,0,6.31,1.49,11.56,6.43l-5.29-10.61Z" transform="translate(0 0)"/><path class="cls-3" d="M1033.82,371.76l-6.19,10.06s5.42,34.85,6.19,41.06a81.34,81.34,0,0,0,3.11,13.15s.81,18.59.81,25.58,3.92,18.59,3.92,18.59a84.77,84.77,0,0,0,3.92,19.36c3.1,8.51,6.19,18.59,6.19,18.59s3.92-10.85,19.36,5.42a9.38,9.38,0,0,0,0-13.17s-4.65-20.9-4.65-31.76-8.52-62.7-8.52-62.7-5.57-58.84-24.14-44.18" transform="translate(0 0)"/><path class="cls-20" d="M1103.3,483.34c-.78,5.38-1.36,9.56-1.36,10.07,0,1.54-3.87,9.29-3.1,10.84s.82,3.87-2.32,9.29.77,11.62.77,11.62c.78-.61,1.54-1.15,2.28-1.65-.28-.46-3.78-6.37-.76-11.58,3.15-5.42,3.1-7.75,2.32-9.3s3.1-9.29,3.1-10.85c0-.44.44-3.64,1.07-8l-2-.45" transform="translate(0 0)"/><path class="cls-21" d="M1115.3,367.94a13,13,0,0,0-2.14,7.53c.23,11.21.27,27.14-1.15,34.29-2.33,11.61-4.65,46.47-4.65,46.47s-2.45,16.09-4,27.11l2,.45c1.58-11,4.36-29.18,4.36-29.18s2.32-34.86,4.64-46.47c1.69-8.54,1.32-29.63,1-40.2" transform="translate(0 0)"/><path class="cls-20" d="M1118.35,519.52c0,1-.08,2.14-.16,3.29l.79-2.89c-.19-.13-.4-.27-.63-.4" transform="translate(0 0)"/><path class="cls-18" d="M1112.68,518c-3.24,0-7.48,1.23-12.74,5.23,4.21-2.72,7.69-3.61,10.44-3.61a10.4,10.4,0,0,1,7.81,3.18v0c.07-1.15.12-2.25.15-3.29a11.11,11.11,0,0,0-5.67-1.48" transform="translate(0 0)"/><path class="cls-3" d="M1138.33,364.78l3.92,4.61s4.56,26.36-5.5,59.68l-3.09,30.2s-5.43,25.57-6.21,31.76-.77,7-2.33,9.28a3,3,0,0,0,0,3.92l-4.63,17s-7-8.52-20.91,2.32c0,0-3.91-6.19-.77-11.61s3.1-7.75,2.32-9.3,3.1-9.29,3.1-10.84,5.43-37.19,5.43-37.19,2.32-34.85,4.64-46.46.78-46.47.78-46.47,12.43-8.49,23.25,3.11" transform="translate(0 0)"/><path class="cls-16" d="M1086.47,292a31,31,0,1,1-31,31,31,31,0,0,1,31-31" transform="translate(0 0)"/><path class="cls-7" d="M1102.59,276.42h0c-.16.45-.34.89-.52,1.33h0c.19-.44.37-.88.53-1.34h0" transform="translate(0 0)"/><path class="cls-15" d="M1074.56,274.7a35.4,35.4,0,0,0-8.91,1.1c.3.46.61.9.94,1.33a35.56,35.56,0,0,1,8-.87,39.88,39.88,0,0,1,11.91,1.77,25.79,25.79,0,0,1,8.52-1.56,19.69,19.69,0,0,1,7.08,1.29c.18-.44.36-.88.52-1.33v0a19.81,19.81,0,0,0-7.63-1.49,25.29,25.29,0,0,0-8.49,1.56,39.68,39.68,0,0,0-11.91-1.78m-11.81,2-.73.28c.17.46.36.9.57,1.34l1.1-.39c-.32-.4-.64-.81-.94-1.23" transform="translate(0 0)"/><path class="cls-15" d="M1065.65,275.8c-1,.26-1.93.56-2.9.92.3.42.62.83,1,1.22,1-.32,1.93-.59,2.89-.81-.33-.43-.64-.87-.94-1.33" transform="translate(0 0)"/><path class="cls-14" d="M1086.47,278s-59.64-20.9-44.93,80.55c0,0,13.17,8.51,23.24,3.09,0,0-7-70.54,20.14-67.38s22.46,65.83,22.46,65.83,15.5,4.65,20.14-3.92-1.55-92.13-41-78.17" transform="translate(0 0)"/><path class="cls-18" d="M1083.18,294.2c-15.51,0-18.87,25.83-19.17,45.53,0,.31,0,.62,0,.93.22-19.8,3.45-46.46,19.2-46.46a13.23,13.23,0,0,1,1.64.1,13.87,13.87,0,0,0-1.68-.1" transform="translate(0 0)"/><path class="cls-15" d="M1083.21,289.55c-16.79,0-19.36,30.18-19.21,50.17.31-19.69,3.68-45.52,19.18-45.52a16.19,16.19,0,0,1,1.68.09h.06c19.36,2.21,22.52,34.81,22.75,53.29.21-16.94-1.64-55.52-22.75-57.94a14.49,14.49,0,0,0-1.71-.1" transform="translate(0 0)"/><path class="cls-7" d="M1039.77,343q.56,7.35,1.64,14.65c-.74-5.21-1.28-10.07-1.64-14.65" transform="translate(0 0)"/><path class="cls-22" d="M1064.62,359.76c.08,1,.14,1.69.16,1.87h0s-.06-.67-.16-1.87" transform="translate(0 0)"/><path class="cls-15" d="M1039.23,327.05q0,8,.54,15.94c.36,4.57.9,9.44,1.64,14.64,0,.31.09.61.13.91,0,0,7.58,4.9,15.63,4.9a15.85,15.85,0,0,0,7.61-1.81c0-.17-.08-.83-.16-1.87,0-.7-.12-1.58-.19-2.61a15.83,15.83,0,0,1-7.35,1.68c-8,0-15.54-4.89-15.54-4.89a212.39,212.39,0,0,1-2.31-26.89" transform="translate(0 0)"/><path class="cls-7" d="M1128.82,342.86a2.44,2.44,0,0,1,0,.27c.13,5.64-.23,10-.94,12.23.73-2.23,1.09-6.74,1-12.5" transform="translate(0 0)"/><path class="cls-23" d="M1107.59,355.53c0,1.18-.08,2.17-.11,2.92h0c0-.75.08-1.74.12-2.92h0" transform="translate(0 0)"/><path class="cls-22" d="M1107.48,358.45c-.06,1.07-.1,1.67-.1,1.67s0-.68.1-1.67h0" transform="translate(0 0)"/><path class="cls-15" d="M1128.81,343.13c-.14,4.18-.59,7.19-1.29,8.48-2.22,4.07-6.93,5.14-11.23,5.14a34.1,34.1,0,0,1-8.69-1.22c0,1.18-.08,2.17-.12,2.92,0,1-.09,1.57-.1,1.67a35.24,35.24,0,0,0,8.88,1.25c4.31,0,9-1.06,11.26-5.17a5.77,5.77,0,0,0,.35-.84c.71-2.2,1.07-6.6.94-12.23" transform="translate(0 0)"/><path class="cls-9" d="M1288.63,854.16a14.17,14.17,0,0,0,1.68-6.8,21.49,21.49,0,0,0-2.22-9,39.84,39.84,0,0,0-4.86-7.71h0a100,100,0,0,1-6.69-8.86,22.41,22.41,0,0,1-2.19-4.42,13.61,13.61,0,0,1-.81-4.47v-.18h0a12.63,12.63,0,0,1,1.7-6.11,27,27,0,0,1,7.53-7.86c3.22-2.42,6.94-4.63,10.43-6.8h0a104.13,104.13,0,0,0,19.2-15.43l-1.87-1.83,1.79,1.9a30,30,0,0,0,6.29-8.42l0,0,0-.06a28.36,28.36,0,0,0,2-11.7c0-1.06,0-2.1,0-3.12q-.59-23.24-2.29-46.41l-5.22.38q1.69,23.07,2.29,46.16c0,1,0,2,0,3a23.27,23.27,0,0,1-1.54,9.57l2.38,1.06-2.33-1.17a25.23,25.23,0,0,1-5.21,7l0,0,0,0a99.06,99.06,0,0,1-18.24,14.66h0c-4.58,2.85-9.89,5.93-14.23,9.85a27.25,27.25,0,0,0-5.53,6.68,17.92,17.92,0,0,0-2.38,8.59h0v.28a18.72,18.72,0,0,0,1.1,6.21,32.06,32.06,0,0,0,4.36,7.94c1.75,2.43,3.65,4.69,5.34,6.83h0a35.19,35.19,0,0,1,4.22,6.69,16.52,16.52,0,0,1,1.73,6.79,9.05,9.05,0,0,1-1.06,4.32Z" transform="translate(0 0)"/><path class="cls-11" d="M1333.13,706.17a16.89,16.89,0,0,0-8.43-13.83l-3.78,7.47.12-9a17.17,17.17,0,0,0-5.57-.67,16.88,16.88,0,1,0,17.66,16.08" transform="translate(0 0)"/><path class="cls-11" d="M1303,820.42a16.87,16.87,0,1,1,.82-13.6l-10.54,8.58,11.59-2.69a16.84,16.84,0,0,1-1.87,7.71" transform="translate(0 0)"/><path class="cls-11" d="M1294.69,787.64A16.88,16.88,0,0,1,1277,771.57h0a16.78,16.78,0,0,1,1.47-7.68,17,17,0,0,1,10.83-9.36l-.08,7,3.81-7.58A16.88,16.88,0,0,1,1310.71,770a16.5,16.5,0,0,1-.72,5.76,16.87,16.87,0,0,1-15.3,11.89" transform="translate(0 0)"/><path class="cls-11" d="M1335.67,760.37A16.86,16.86,0,0,1,1318,744.3h0a16.48,16.48,0,0,1,1.59-8,16.87,16.87,0,0,1,22.45-8.06c.36.17.71.35,1.06.55l-3,8.16,6.13-5.89a16.87,16.87,0,0,1,5.46,11.65,16.5,16.5,0,0,1-.43,4.65,16.87,16.87,0,0,1-15.64,13" transform="translate(0 0)"/><path class="cls-7" d="M1299.51,709a16.87,16.87,0,0,0,14.71,14.77,0,0,0,0,0,0,0,16.87,16.87,0,0,1-14.7-14.74m33.26,1.55h0a16.89,16.89,0,0,1-13.32,13v0a16.85,16.85,0,0,0,13.33-13" transform="translate(0 0)"/><path class="cls-10" d="M1319.44,723.53a17,17,0,0,1-2.39.28l-.8,0a17.19,17.19,0,0,1-2-.12,0,0,0,0,1,0,0,17.15,17.15,0,0,0,2,.12h.78a17.61,17.61,0,0,0,2.41-.28v0" transform="translate(0 0)"/><path class="cls-24" d="M1301.22,699.31a16.75,16.75,0,0,0-1.81,8.43c0,.41,0,.83.1,1.23a16.83,16.83,0,0,0,16.74,14.86c.27,0,.53,0,.8,0a16.86,16.86,0,0,0,15.72-13.29c-.64,0-1.28.08-1.9.15-3.92.43-7.7,1.63-11.61,1.88-.39,0-.78,0-1.18,0-3.57,0-7.26-1-9.49-3.78a53,53,0,0,1-3.12-5.48,12,12,0,0,0-4.25-4" transform="translate(0 0)"/><path class="cls-7" d="M1351.31,747.38h0a16.88,16.88,0,0,1-15.64,13,16.88,16.88,0,0,0,15.64-13" transform="translate(0 0)"/><path class="cls-24" d="M1319.62,736.3h0a16.54,16.54,0,0,0-1.62,7.15c0,.28,0,.56,0,.84h0a16.88,16.88,0,0,0,16.85,16.09h.8a16.89,16.89,0,0,0,15.64-13c-.57,0-1.14.1-1.7.1-4.06.41-8,1.53-12.06,1.71-.3,0-.6,0-.91,0-3.82,0-7.86-1.08-10.28-3.94-1.42-1.66-2.14-3.76-3.35-5.58a12.43,12.43,0,0,0-3.39-3.39" transform="translate(0 0)"/><path class="cls-7" d="M1305.9,782.62l-.08.07a17,17,0,0,1-2.44,2l-.06,0a16.63,16.63,0,0,0,2.58-2.15" transform="translate(0 0)"/><path class="cls-10" d="M1310,775.75h0a16.92,16.92,0,0,1-4.17,6.94l.08-.07a16.77,16.77,0,0,0,4.1-6.87m-6.62,9a16.93,16.93,0,0,1-8.69,2.92,16.92,16.92,0,0,0,8.63-2.87l.06,0" transform="translate(0 0)"/><path class="cls-24" d="M1278.51,763.88h0a16.62,16.62,0,0,0-1.49,6.87c0,.27,0,.54,0,.81h0a16.89,16.89,0,0,0,16.85,16.09l.8,0a16.88,16.88,0,0,0,15.3-11.89c-4.15.32-8,1.35-12.34,1.44h-.5c-4.18,0-8.72-1.14-11.46-4.2-1.53-1.77-2.35-3.84-3.65-5.69a14.16,14.16,0,0,0-3.53-3.42" transform="translate(0 0)"/><path class="cls-24" d="M1272.26,806.63h0a16.83,16.83,0,0,0-1.12,6c0,.29,0,.58,0,.87a16.87,16.87,0,0,0,31.86,6.92,73,73,0,0,1-8.1.45h-.46c-5-.13-10.53-1.53-14-4.93-1.91-1.81-2.91-4-4.52-6a16.91,16.91,0,0,0-3.7-3.31" transform="translate(0 0)"/><path class="cls-25" d="M1260.88,845.29s13.31-.4,17.34-3.27,20.48-6.27,21.49-1.68,20,22.81,5,22.92-34.94-2.33-39-4.77-4.85-13.2-4.85-13.2" transform="translate(0 0)"/><path class="cls-26" d="M1261.23,845.28h0m49.22,14.05h0v0" transform="translate(0 0)"/><path class="cls-27" d="M1261.33,845.28h-.44c0,.41.91,10.79,4.84,13.18s23,4.78,37.91,4.78h1c4.27,0,5.79-1.53,5.76-3.82v-.09c-.61,1.44-2.29,2.31-5.5,2.33h-1c-14.89,0-34-2.41-37.91-4.78-3-1.87-4.26-8.53-4.66-11.61" transform="translate(0 0)"/></g></g></g></svg>