<svg xmlns="http://www.w3.org/2000/svg" xmlns:xlink="http://www.w3.org/1999/xlink" viewBox="0 0 1468.28 821.43"><defs><style>.cls-1{fill:none;}.cls-2{clip-path:url(#clip-path);}.cls-3{fill:#f0f0ef;}.cls-4{fill:#fbfbfb;}.cls-5{fill:#14282e;}.cls-6{fill:#38b18b;}.cls-7{fill:#d9ece6;}.cls-8{fill:#b2b2b1;}.cls-9{fill:#207b5d;}.cls-10{fill:#fff;}.cls-11{fill:#2e9f7d;}.cls-12{fill:#f18879;}.cls-13{fill:#456bb2;}.cls-14{fill:#cccbcb;}.cls-15{fill:#365da8;}.cls-16{fill:#061a21;}.cls-17{fill:#cb6c5c;}.cls-18{fill:#202f58;}.cls-19{fill:#288d6d;}.cls-20{fill:#228063;}.cls-21{fill:#1a2343;}.cls-22{fill:#ea5350;}</style><clipPath id="clip-path" transform="translate(0 0)"><rect class="cls-1" width="1468.28" height="821.43"/></clipPath></defs><title>Asset 1</title><g id="Layer_2" data-name="Layer 2"><g id="Layer_1-2" data-name="Layer 1"><g class="cls-2"><path class="cls-3" d="M600.38,158a158,158,0,1,0,158-158,158,158,0,0,0-158,158" transform="translate(0 0)"/><path class="cls-3" d="M371.92,337.47c15.14-21-18.59-15.36-56.09-9.76-26.34,3.92-54.53,7.85-69,2.59-35.05-12.75-8-30.27-59,14.33S48.48,432.26,96.28,447.4s227.84-43.81,275.64-109.93" transform="translate(0 0)"/><path class="cls-4" d="M1061.19,145.28c64.88,0,188.68-5.3,139-27.15s-86.39,21.85-108.08,3.31-56.77-21.18-85.89-3.31-20.48-9.93-55.61,0c-49.17,13.92-207,27.15-72.74,27.15Z" transform="translate(0 0)"/><path class="cls-5" d="M684.18,813.81c44.91,0,81.32-72.13,81.32-161.1S729.09,491.6,684.18,491.6H579.83V813.81Z" transform="translate(0 0)"/><path class="cls-5" d="M498.12,652.71c0-89,36.41-161.11,81.33-161.11s81.32,72.13,81.32,161.11-36.41,161.11-81.32,161.11-81.33-72.14-81.33-161.11" transform="translate(0 0)"/><path class="cls-5" d="M1280.58,813.81c44.91,0,81.32-72.12,81.32-161.1s-36.41-161.11-81.32-161.11H1176.23V813.81Z" transform="translate(0 0)"/><path class="cls-5" d="M1094.52,652.71c0-89,36.41-161.1,81.32-161.1s81.33,72.12,81.33,161.1-36.41,161.1-81.33,161.1-81.32-72.12-81.32-161.1" transform="translate(0 0)"/><path class="cls-6" d="M151,732.68,95.33,719A66.61,66.61,0,0,1,51.52,683.8l0-.08A66.55,66.55,0,0,0,36,663.46L22.35,651.28a66.61,66.61,0,0,1-22-56.12l7.55-78.79a66.62,66.62,0,0,1,47.4-57.52l39.82-11.78,143.67-10.23Z" transform="translate(0 0)"/><path class="cls-5" d="M272.53,813.81c44.91,0,81.32-72.13,81.32-161.1S317.44,491.6,272.53,491.6H168.18V813.81Z" transform="translate(0 0)"/><path class="cls-5" d="M86.47,652.71c0-89,36.41-161.1,81.32-161.1s81.33,72.12,81.33,161.1-36.41,161.1-81.33,161.1-81.32-72.12-81.32-161.1" transform="translate(0 0)"/><path class="cls-6" d="M110.74,652.71c0-70.33,25.54-127.35,57.06-127.35s57,57,57,127.35-25.54,127.35-57,127.35-57.06-57-57.06-127.35" transform="translate(0 0)"/><path class="cls-6" d="M993.15,732.68,1133.6,418.79S923.44,262.34,657,262.34c-432.15,0-417.32,58.25-561.93,184.73l63.12,44.53c112.31,0,121.68,178,139.62,228.12a19.54,19.54,0,0,0,18.38,13Z" transform="translate(0 0)"/><path class="cls-5" d="M868.93,813.81c44.91,0,81.32-72.13,81.32-161.1S913.84,491.6,868.93,491.6H764.58V813.81Z" transform="translate(0 0)"/><path class="cls-5" d="M682.87,652.71c0-89,36.41-161.1,81.32-161.1s81.33,72.12,81.33,161.1-36.41,161.1-81.33,161.1-81.32-72.12-81.32-161.1" transform="translate(0 0)"/><path class="cls-6" d="M707.14,652.71c0-70.33,25.54-127.35,57.05-127.35s57.06,57,57.06,127.35-25.54,127.35-57.06,127.35-57.05-57-57.05-127.35" transform="translate(0 0)"/><path class="cls-6" d="M909.34,706.77c-12.94-58.8-74.81-215-149-215l-80.36-73H1133.6c31.42,0,170.89,19.28,249.92,72.81,63.85,43.26,71.61,108.87,80.9,204.77,1.89,19.58-15.24,36.4-36.88,36.42-181.77.08-401.75.7-481.82,1-17.67,0-32.9-11.23-36.38-27" transform="translate(0 0)"/><path class="cls-7" d="M636.5,279c42.68,23.41,100.94,72.81,133.85,121.57a41.8,41.8,0,0,0,34,18.23h296.47C1099.5,417.69,934.29,279,636.5,279" transform="translate(0 0)"/><path class="cls-7" d="M1100.8,418.79h0" transform="translate(0 0)"/><path class="cls-7" d="M481.36,280.29c-5.26.24-9.94.53-13.83.86l-8.63.35L427.61,418.8h43.72c6.1-52.37,12.47-97.14,12.47-97.14l33.25,2.47-33.25-2.47c-1.31-14.67-2.09-28.46-2.44-41.37m116.87.06c-.91,24.5-.66,42.7-1.49,49.69-6.4-.46-19.65-1.44-35.46-2.61l35.45,2.64c-1.29,22.39-13.23,54.14-28.62,88.73H718.24a12.63,12.63,0,0,0,10.48-18.94c-22.89-40-63.65-80.22-99.53-106.16a77.08,77.08,0,0,0-31-13.34M441.49,282.5C197.94,299.15,183.65,418.8,233.32,418.8h177.1Z" transform="translate(0 0)"/><path class="cls-7" d="M718.24,418.79h0" transform="translate(0 0)"/><path class="cls-5" d="M960.61,662.78l155.31,11.73a9.61,9.61,0,0,1,8.9,9.59v10.61a9.62,9.62,0,0,1-9.63,9.63H959.88a9.61,9.61,0,0,1-9.62-9.63V672.39a9.63,9.63,0,0,1,10.35-9.61" transform="translate(0 0)"/><path class="cls-5" d="M1454.34,665.05l-42.78,8.58a9.63,9.63,0,0,0-7.73,9.44v11.65a9.63,9.63,0,0,0,9.62,9.63h45.2a9.62,9.62,0,0,0,9.56-10.77l-2.42-20.23a9.62,9.62,0,0,0-11.45-8.3" transform="translate(0 0)"/><path class="cls-7" d="M871.54,471.61s-2.2,38.42,78.15,46.71a196.89,196.89,0,0,0,20,1c69.85,0,118.7-37.19,118.7-37.19Z" transform="translate(0 0)"/><path class="cls-8" d="M12.33,497.91h0a65,65,0,0,0-2.77,8.54,68.11,68.11,0,0,1,2.77-8.54m-2.78,8.58-.12.49.12-.49m-.22.89a.52.52,0,0,1,0,.11.52.52,0,0,0,0-.11" transform="translate(0 0)"/><path class="cls-9" d="M27,497.49l-14.67.42a66.55,66.55,0,0,0-2.78,8.54.06.06,0,0,1,0,0l-.12.49c0,.13-.07.26-.09.4l0,.11a64.94,64.94,0,0,0-1.44,8.86L4.65,549.91a11.47,11.47,0,0,0,1.78.42,11.16,11.16,0,0,0,1.87.16c19.36,0,18.71-53,18.71-53" transform="translate(0 0)"/><path class="cls-10" d="M1371,483.69q6.48,3.82,12.53,7.91,4.47,3,8.59,6.21-4.12-3.18-8.6-6.22-6-4.09-12.52-7.9m21.21,14.2c.17.12.32.24.48.37-.16-.13-.31-.25-.48-.37m.72.55.29.23-.29-.23" transform="translate(0 0)"/><path class="cls-7" d="M1362.18,478.72l-42.53,3.43s29.29,37.19,71.14,37.19a70.16,70.16,0,0,0,12-1,79.13,79.13,0,0,0,9.2-2.09,147.63,147.63,0,0,0-18.78-17.55l-.29-.23-.24-.18c-.16-.13-.31-.25-.48-.37l-.09-.08q-4.11-3.18-8.59-6.21-6-4.1-12.53-7.91-4.32-2.55-8.81-5" transform="translate(0 0)"/><path class="cls-5" d="M1155.6,542.72h153.49a26.24,26.24,0,0,1,15,4.83l26.82,18.81a26.9,26.9,0,0,1,11.28,18.31l6.84,50.8c1.92,14.29-8.58,26.39-22.89,26.39H1182a26.91,26.91,0,0,1-23.64-14.71l-30.67-59.77c-4.46-8.68-3.71-18.81,1.94-26.06l7.67-9.84a23,23,0,0,1,18.28-8.76" transform="translate(0 0)"/><path class="cls-11" d="M646.73,666.65H529.67c1.05,10.88,2.19,21.59,3.33,31.76H645.18a7.14,7.14,0,0,0,7.11-6.51l1.56-17.48a7.14,7.14,0,0,0-7.12-7.77m-168.62,0H465.62c-3.91,10.81-7.81,21.53-11.54,31.76h32q-1.85-7.1-3.71-14.52h0c-1.42-5.65-2.83-11.42-4.22-17.25m-66.36,0H346.6a7.14,7.14,0,0,0-7.11,6.52l-1.55,17.46a7.15,7.15,0,0,0,7.11,7.78h59.61c2.18-9.89,4.56-20.6,7.09-31.76" transform="translate(0 0)"/></g><polygon class="cls-6" points="442.29 278.99 460.27 275.5 423.5 436.84 406.31 436.84 442.29 278.99"/><g class="cls-2"><path class="cls-5" d="M507.85,454.93H446.4l-1.59,6.45c-1.65,6.7,2.45,12.14,9.14,12.14h37.18c6.7,0,13.48-5.44,15.13-12.14Z" transform="translate(0 0)"/><path class="cls-5" d="M296.4,454.93H235l-1.59,6.45c-1.65,6.7,2.44,12.14,9.14,12.14h37.18c6.71,0,13.47-5.44,15.13-12.14Z" transform="translate(0 0)"/><path class="cls-11" d="M414.39,436.84h-4.11l4.43,207a2,2,0,0,0,1.82,2q1.05-4.54,2.13-9.14Z" transform="translate(0 0)"/><path class="cls-11" d="M412.24,430.46h0a2,2,0,0,0-2,2.1l.09,4.28h4.1l-.09-4.37a2,2,0,0,0-2.05-2" transform="translate(0 0)"/></g><polygon class="cls-12" points="538.41 799.77 517.24 799.43 511.13 750.32 532.3 750.66 538.41 799.77"/><polygon class="cls-12" points="409.45 799.27 390.1 788.47 404.56 742.89 423.91 753.69 409.45 799.27"/><g class="cls-2"><path class="cls-5" d="M388.26,785.93l22.45,12.74a1.85,1.85,0,0,1,.86,2.15l-5.65,18.43a3.11,3.11,0,0,1-4.55,1.74c-7.15-4.21-12.19-7.63-21.29-12.79-5.6-3.18-22.81-12.17-30.54-16.56-7.56-4.29-4.4-12.6-.84-11.49,15.95,4.94,29.07,6.73,35.92,5.22a5.18,5.18,0,0,1,3.64.56" transform="translate(0 0)"/><path class="cls-5" d="M516.81,797l23.11.36a1.86,1.86,0,0,1,1.79,1.47l3.88,18.89a3.08,3.08,0,0,1-3.11,3.72c-8.33-.28-20.37-.95-30.85-1.12-12.26-.19-22.86.31-37.23.08-8.69-.13-11-9-7.32-9.69,16.62-3.37,30.15-3.54,44.6-12.14a9.75,9.75,0,0,1,5.13-1.57" transform="translate(0 0)"/><path class="cls-12" d="M506.77,178.69A449.89,449.89,0,0,1,469,206.52c-6.63,4.26-13.32,8.49-20.46,12.34s-14.42,7.64-23.4,10.51a62.15,62.15,0,0,1-7.39,1.87c-1.37.25-2.95.43-4.44.58a34.1,34.1,0,0,1-5.14-.06A28.25,28.25,0,0,1,389,221.89,40.23,40.23,0,0,1,381.18,207a72.22,72.22,0,0,1-2.48-13.51c-1.37-17.27.85-32.74,4.61-48.48l15.75,2.18c.23,14.41,1.08,29.61,4.09,42.47a46.94,46.94,0,0,0,2.85,8.63,12.87,12.87,0,0,0,3.25,4.88c.42.3.61.26.64.14l.19-.23a31.72,31.72,0,0,0,5.3-1.68A125.74,125.74,0,0,0,433,192.06c6-3.76,12.1-7.78,18.09-12,12-8.39,24-17.42,35.54-26.31Z" transform="translate(0 0)"/><path class="cls-13" d="M513.26,169c-9.66,21.73-46.83,44.26-67.44,53.68-6.09,2.79-5.32,11-8.93,7.42,0,0-15.88-29.14-15.88-35.1s5.25-2.4,9.58-6.39c15.48-14.26,47.88-45.85,68-49.34,26.5-4.58,23.65,9.42,14.63,29.73" transform="translate(0 0)"/><path class="cls-5" d="M423.23,191.17c-2.05-3-10.52,4.88-13.21,8.15s4.71,15.28,6.94,21.58-2.15,12.87,4.67,13.85c3.62.52,13.8-.81,15.77-3.43,4.62-6.14-9.27-32.94-14.17-40.15" transform="translate(0 0)"/><path class="cls-14" d="M485.05,199.38c-1.75,1.29-3.53,2.58-5.33,3.82,1.8-1.24,3.58-2.52,5.33-3.82Z" transform="translate(0 0)"/><path class="cls-15" d="M488.55,177.2c-8.9,9.22-14.75,21.1-16.68,31.17,2.62-1.64,5.25-3.38,7.85-5.17q2.7-1.87,5.33-3.83c1.06-8.23,2.27-15.62,3.5-22.17" transform="translate(0 0)"/><path class="cls-12" d="M395.94,153.65l13.67-20.26-22.32-9.09s-12.62,14.28-3.69,26.85Z" transform="translate(0 0)"/></g><polygon class="cls-12" points="415.35 111.58 394.83 110.89 387.29 124.3 409.61 133.39 415.35 111.58"/><polygon class="cls-16" points="534.85 771.07 535.46 775.98 535.47 775.98 534.86 771.07 534.85 771.07"/><polygon class="cls-17" points="513.67 770.75 514.28 775.65 535.46 775.98 534.85 771.07 513.67 770.75"/><polygon class="cls-14" points="416.45 777.2 416.47 777.21 418.58 770.55 418.56 770.54 416.45 777.2"/><polygon class="cls-17" points="399.27 759.59 397.11 766.4 416.45 777.2 418.57 770.54 399.27 759.59"/><g class="cls-2"><path class="cls-13" d="M617,147C594.2,227.41,598.8,312.77,596.74,330c-16.56-1.2-78.94-5.85-112.94-8.39-10.83-121,14.83-182.43,14.83-182.43s7.27-1.41,17.14-2.42c3.1-.32,6.44-.59,9.92-.78,1.92-.12,3.87-.18,5.85-.22,12.78-.21,33.64,1.83,48,3.58,3,.38,6.07.83,9,1.31,2.75.47,5.45,1,8,1.47C608.11,144.46,617,147,617,147" transform="translate(0 0)"/><path class="cls-5" d="M531.54,135.8c-9.53,5.09-12.27,23.73,6.12,24.45s36.65-12.21,41.89-20.87Z" transform="translate(0 0)"/><path class="cls-15" d="M592.91,181.47c-2,7.79.29,43.29,8.41,52.05,1.12-11.37,2.59-23.24,4.54-35.37Z" transform="translate(0 0)"/><path class="cls-12" d="M578.81,85c-4.17,15.23-9.31,43.31.74,54.41-9,7.73-19.38,13.16-37.77,12.44s-15.58-9.71-10.23-16c17.52-2.83,18-15.65,15.92-27.87Z" transform="translate(0 0)"/><path class="cls-14" d="M548.33,116.1v.45h0c0-.15,0-.3,0-.45" transform="translate(0 0)"/><path class="cls-17" d="M566,94.34l-18.55,13.58a50,50,0,0,1,.84,8.18c0,.15,0,.3,0,.45,6.65-.46,16.22-7,17.44-13.85.6-3.41.7-6.72.26-8.36" transform="translate(0 0)"/><path class="cls-5" d="M531,79.14s-13-18.24-9.18-32.52c4.88-18.29,34.29,4.14,9.18,32.52" transform="translate(0 0)"/><path class="cls-12" d="M582.38,61.85C579.54,82.68,578.94,95,567.58,105c-17.1,15-42.2,3.46-45.64-17.79C518.85,68,524,37.21,545.1,30.41c20.79-6.7,40.13,10.62,37.28,31.44" transform="translate(0 0)"/><path class="cls-5" d="M533.09,83.86c0,3.19-2.91,3.94-5.28,5.38a14.32,14.32,0,0,0-4.08,4.35s-3-1-1.79-6.42,11.15-6.29,11.15-3.31" transform="translate(0 0)"/><path class="cls-5" d="M534.57,84c0,5.47,6.06,4.7,10.68,6.23a19.38,19.38,0,0,1,9.61,6.64s2.13-3.78-1.32-8.36c-5.81-7.73-19-7.5-19-4.51" transform="translate(0 0)"/><path class="cls-5" d="M566.31,43c-13,3.86-49.66,7.91-45.19-10.81,6.24-26.16,22.74-12.51,25.28-8.8,10.5-7.6,56.87-1,47.62,14C604.07,39,609.93,50,602.68,55.39s-16,27.51-20.85,26.87a65.18,65.18,0,0,1-17-4.79l9.78-13.18S562.53,52.76,566.31,43" transform="translate(0 0)"/><path class="cls-5" d="M589.14,39.84c7-1.74,13.86-2.54,19.69,2.83-.43-9-12.81-10.3-19.69-2.83" transform="translate(0 0)"/><path class="cls-12" d="M590.11,85.61a19.92,19.92,0,0,1-13.06,7.87c-6.94,1-9.5-5.43-6.81-11.49,2.42-5.46,8.94-12.56,15.53-10.77s8.15,9.15,4.34,14.39" transform="translate(0 0)"/><path class="cls-13" d="M506.41,770.64l35.84.54s-20.71-141.61-17.47-207.51c1-20-2.24-48.09,3.06-78.13,6.69-37.87,9.9-53,18.56-100.83,6.17-34.12,11.64-57.53,11.64-57.53l-74.24-5.52S459.55,492.34,460.28,557c.74,67.18,46.13,213.68,46.13,213.68" transform="translate(0 0)"/><path class="cls-18" d="M483.8,321.66S472,404.88,465.09,477.1c24-64.5,58.55-151.9,58.77-152.46l-6.81-.51Z" transform="translate(0 0)"/><path class="cls-18" d="M552.51,326.77l5.53.41Z" transform="translate(0 0)"/><path class="cls-18" d="M525.1,510.54l0,0c-.37,7-.43,13.77-.38,20.23,0-1,0-2,0-3.08,0-5.53.1-11.28.41-17.19" transform="translate(0 0)"/><path class="cls-18" d="M524.72,533.08c-6.17,17.44-11.55,33.95-15.3,48.63-6.57,25.72-17,64.7-27.09,102.18,11.86,47.33,24.08,86.75,24.08,86.75l35.85.54s-4.69-32.06-9.27-72.77c-1.13-10.17-2.26-20.87-3.32-31.76-2.94-30.5-5.24-62.38-5.24-87.59,0-5.48.11-10.63.35-15.39.14-3,.19-6.13.2-9.44,0-6.49-.19-13.6-.26-21.15" transform="translate(0 0)"/><path class="cls-19" d="M524.7,530.81c0,.76,0,1.52,0,2.27h0c0-.75,0-1.5,0-2.26M473.28,645.5v0c1.55,7.06,3.17,14.14,4.83,21.13h0c-1.67-7-3.29-14.07-4.84-21.15" transform="translate(0 0)"/><path class="cls-20" d="M478.12,666.65h0c1.39,5.83,2.8,11.6,4.22,17.25h0c-1.42-5.65-2.83-11.42-4.21-17.24" transform="translate(0 0)"/><path class="cls-21" d="M525.08,510.58c-9.76,21.1-18.52,41.18-24.63,58.74-6.86,19.74-16.79,47.47-27.17,76.18,2.84,13,5.93,26,9.05,38.39,10.13-37.48,20.52-76.45,27.1-102.17,3.74-14.69,9.12-31.21,15.29-48.64,0-.75,0-1.51,0-2.27-.05-6.46,0-13.23.38-20.23" transform="translate(0 0)"/><path class="cls-13" d="M523.86,324.64s-53.34,134.78-73.57,193.44C428.15,582.3,392.4,755.69,392.4,755.69l33.73,19.14s52.55-143,74.32-205.51c24.79-71.27,93.09-183.88,96.28-239.26l-72.87-5.42" transform="translate(0 0)"/><path class="cls-18" d="M523.86,324.64h0c-.22.56-34.81,88-58.77,152.46-5.76,15.49-10.89,29.64-14.8,41-9.35,27.13-21.14,73.76-31.63,118.56q-1.08,4.59-2.13,9.14C403.16,703.5,392.4,755.69,392.4,755.69l33.73,19.14s52.55-143,74.32-205.51c24.79-71.27,93.09-183.88,96.28-239.26l-72.87-5.42" transform="translate(0 0)"/></g><polygon class="cls-13" points="387.94 754.13 427.66 776.66 434.39 764.79 390.43 738.84 387.94 754.13"/><polygon class="cls-13" points="501.89 771.4 544.61 772.07 544.83 758.27 497.08 756.79 501.89 771.4"/><g class="cls-2"><path class="cls-5" d="M554.5,65.34c-.13,1.7-1.13,3-2.24,2.93s-1.92-1.53-1.79-3.23,1.13-3,2.25-2.94,1.91,1.54,1.78,3.24" transform="translate(0 0)"/><path class="cls-5" d="M531.85,63.91c-.12,1.7-1.12,3-2.24,2.93s-1.91-1.53-1.79-3.23,1.14-3,2.25-2.94,1.91,1.53,1.78,3.24" transform="translate(0 0)"/><path class="cls-22" d="M537,65.21s-4.6,9.54-9.22,14c2.8,3,8,2.13,8,2.13Z" transform="translate(0 0)"/><path class="cls-5" d="M535.11,92.28a14.13,14.13,0,0,0,10-4.86l-.1-.71-.7.1A13.55,13.55,0,0,1,533,91.26l-.54.47.47.53a16.54,16.54,0,0,0,2.22,0" transform="translate(0 0)"/><path class="cls-5" d="M558.08,59.56l.48-.15a1,1,0,0,0,.3-1.39A10,10,0,0,0,551,53.28a1,1,0,0,0,0,2,8,8,0,0,1,6.16,3.81,1,1,0,0,0,.91.46" transform="translate(0 0)"/><path class="cls-5" d="M523.46,56.32l.89-.34A7.94,7.94,0,0,1,531,53.06a1,1,0,0,0,.26-2,10,10,0,0,0-8.41,3.59,1,1,0,0,0,.1,1.42Z" transform="translate(0 0)"/><path class="cls-13" d="M384.62,786.44c-3.48-1.15-5.82-2.63-6.35-4.05a2.07,2.07,0,0,1,.3-1.92c.22-.32.42-.36.57-.35,1.37,0,3.86,3.55,5.48,6.32m-4.28-.74a25.08,25.08,0,0,0,5.2,2.06l.53-.16.05-.55c-.43-.8-4.31-7.82-6.94-7.93a1.57,1.57,0,0,0-1.44.81,3,3,0,0,0-.41,2.81,6.44,6.44,0,0,0,3,3" transform="translate(0 0)"/><path class="cls-13" d="M385.94,778.15a1.75,1.75,0,0,1,.79,1c.74,1.9-.43,5.33-1.1,7-1.08-2.51-1.69-6.89-.78-8,.09-.1.28-.34.89-.08Zm-.51,9.57.27.07.43-.29c.11-.24,2.68-5.8,1.53-8.77a2.73,2.73,0,0,0-1.53-1.61,1.63,1.63,0,0,0-2,.36c-1.55,1.83-.16,7.95,1.16,10.07Z" transform="translate(0 0)"/><path class="cls-13" d="M503.43,796.2c1.6-.53,6.19,1.31,9.52,3-4.69.7-8.17.44-9.45-.73a1.79,1.79,0,0,1-.58-1.63l.32-.52Zm11.25,3.68.34-.4-.26-.52c-1-.51-9.4-5-12-3.56a1.56,1.56,0,0,0-.85,1.31,2.82,2.82,0,0,0,.9,2.46c2.29,2.09,8.37,1.36,11.79.73Z" transform="translate(0 0)"/><path class="cls-13" d="M509.14,790.75h0Zm-.47.6.51-.1a2.69,2.69,0,0,1,2,.67c1.75,1.48,2.45,4.91,2.69,6.58-2.58-1.61-6-5.26-5.71-6.7,0-.09.06-.31.48-.45m6,8.53.13-.07.21-.44c0-.25-.5-6-3.16-8.21a3.59,3.59,0,0,0-2.76-.9c-1.39.11-1.79.81-1.89,1.37-.43,2.38,4.56,7,7.1,8.23Z" transform="translate(0 0)"/><path class="cls-12" d="M622.24,159.76c4.68,8.67,8.7,17.23,12.85,26s7.77,17.6,11.43,26.56,7,18.13,10,27.52l2.2,7.11,1.94,7.3c.65,2.44,1.15,5,1.73,7.53l.41,1.92.42,2.57c.3,1.78.3,3.15.45,4.74A99.61,99.61,0,0,1,663,287.2c-.57,5.07-1.31,10-2.16,14.84-1.77,9.68-3.89,19.1-6.29,28.41-4.77,18.65-10.49,36.77-17.07,54.8L622.14,381c3.22-18.38,6.29-36.95,9-55.27,1.32-9.17,2.53-18.31,3.35-27.32.43-4.49.75-8.95.9-13.26a85.85,85.85,0,0,0-.31-12c-.14-.74-.19-1.74-.37-2.27l-.2-.91-.44-1.51c-.63-2.06-1.15-4.08-1.86-6.16l-2.12-6.24-2.32-6.29c-3.2-8.4-6.79-16.8-10.41-25.22s-7.62-16.77-11.6-25.11-8.07-16.76-12-24.86Z" transform="translate(0 0)"/><path class="cls-13" d="M617,147c15.18,4.75,35.3,67.75,43.24,94.58,5.08,4.55,2.53,12.87,2.53,12.87l-30.95,13.66c-7.27-3.45-11.59-11.09-8.92-14.77-16.19-30.59-28.94-53.43-35.06-71.69-9.05-27,5.76-42,29.16-34.65" transform="translate(0 0)"/><path class="cls-5" d="M624.28,260.6c-3.14,1.86,6.44,11.67,9.54,14.55s13.34-4.64,19.76-6.49,12.72,2.93,14.11-3.81c.74-3.59,0-13.83-2.47-16-5.85-5-33.43,7.26-40.94,11.71" transform="translate(0 0)"/><path class="cls-12" d="M626.07,372l-16.53,13.75,20.57,14.86s13.53-14.31,7.45-22.88Z" transform="translate(0 0)"/></g><polygon class="cls-12" points="600.1 404.98 620.45 414.89 630.1 400.59 609.53 385.73 600.1 404.98"/></g></g></svg>