<svg xmlns="http://www.w3.org/2000/svg" viewBox="0 0 932.66 762.05"><defs><style>.cls-1,.cls-2{fill:#fff;}.cls-1{fill-rule:evenodd;}</style></defs><title>Asset 3</title><g id="Layer_2" data-name="Layer 2"><g id="Layer_1-2" data-name="Layer 1"><path id="Fill-1" class="cls-1" d="M213.79,116.16h-43V.22c34.78,0,80.82-1.37,117,2.73,60.7,7.5,102.65,39.21,127.54,95.13q109.46,255.08,125.49,312.7c-8.53,10.91-14,17.39-14.33,18.07-25.23,31-70.92,35.47-102,10.23a70.48,70.48,0,0,1-20.46-27.28l-102.64-238A95.71,95.71,0,0,0,213.79,116.16Z" transform="translate(-4.02)"/><path id="Fill-4" class="cls-1" d="M709.6,101.84c-.34,1.7-31.37,74-169.14,308.94-24.21-70.25-40-121-52-154.47l80.28-154.47Z" transform="translate(-4.02)"/><path class="cls-2" d="M51.58,721.89a6.07,6.07,0,0,1-4.65-1.59,15.32,15.32,0,0,1-2.54-3.7L4.44,618.52A4.22,4.22,0,0,1,4,616.61a4.46,4.46,0,0,1,1.37-3.27A4.72,4.72,0,0,1,8.88,612H32.77A5.72,5.72,0,0,1,37,613.44a7.16,7.16,0,0,1,1.91,3l23.88,64.9,24.1-64.9a7.06,7.06,0,0,1,1.91-3A5.72,5.72,0,0,1,93,612H116.9a4.8,4.8,0,0,1,3.38,1.38,4.31,4.31,0,0,1,1.48,3.27,4.22,4.22,0,0,1-.42,1.91L81.39,716.6A10.92,10.92,0,0,1,79,720.3q-1.59,1.59-5,1.59Z" transform="translate(-4.02)"/><path class="cls-2" d="M182,724q-24.94,0-39.74-13.53t-15.43-40.16v-7.4q.63-16.7,7.5-28.64a45.43,45.43,0,0,1,19-18.18q12.15-6.24,28.43-6.24,18.6,0,30.76,7.4a47.07,47.07,0,0,1,18.28,20.08Q237,650,237,666.29v5.08a5,5,0,0,1-1.58,3.8,5.26,5.26,0,0,1-3.7,1.48H164v1.48a35.06,35.06,0,0,0,2.12,11.2,17.2,17.2,0,0,0,5.91,8,16,16,0,0,0,9.73,3,16.19,16.19,0,0,0,7.08-1.38,18.53,18.53,0,0,0,4.76-3.17,39.29,39.29,0,0,0,3-3.06,11.06,11.06,0,0,1,3.06-2.65,9.61,9.61,0,0,1,3.7-.52h26.21a5.25,5.25,0,0,1,3.49,1.16,3.54,3.54,0,0,1,1.16,3.27q-.21,3.6-3.59,8.67a43.73,43.73,0,0,1-9.83,10,53.21,53.21,0,0,1-16.17,8.14A72.89,72.89,0,0,1,182,724Zm-18-68.28h35.73v-.42a32,32,0,0,0-2-11.84,16.31,16.31,0,0,0-6.13-7.82,17.34,17.34,0,0,0-9.83-2.75,16.33,16.33,0,0,0-9.62,2.75,17.38,17.38,0,0,0-6,7.82A30.41,30.41,0,0,0,164,655.3Z" transform="translate(-4.02)"/><path class="cls-2" d="M259,721.89a5.07,5.07,0,0,1-5.29-5.29V617.25a5.24,5.24,0,0,1,1.48-3.7A5,5,0,0,1,259,612h24.31a5,5,0,0,1,3.8,1.59,5.24,5.24,0,0,1,1.48,3.7v8.45a39.67,39.67,0,0,1,13.64-10.14,42.68,42.68,0,0,1,17.86-3.6h9.3a5.29,5.29,0,0,1,3.7,1.48,5,5,0,0,1,1.59,3.81V639a5.44,5.44,0,0,1-5.29,5.29H308.84q-8.65,0-13.42,4.75t-4.75,13.43V716.6a5,5,0,0,1-1.59,3.81,5.5,5.5,0,0,1-3.91,1.48Z" transform="translate(-4.02)"/><path class="cls-2" d="M351.55,596.11a5.07,5.07,0,0,1-5.29-5.29V572a5.5,5.5,0,0,1,1.48-3.91,5,5,0,0,1,3.81-1.59H376.7a5.43,5.43,0,0,1,5.5,5.5v18.81a5,5,0,0,1-1.59,3.81,5.49,5.49,0,0,1-3.91,1.48Zm.21,125.78a5.07,5.07,0,0,1-5.29-5.29V617.25a5.07,5.07,0,0,1,5.29-5.29H376.7a5.29,5.29,0,0,1,3.7,1.48,5,5,0,0,1,1.59,3.81V716.6a5,5,0,0,1-1.59,3.81,5.24,5.24,0,0,1-3.7,1.48Z" transform="translate(-4.02)"/><path class="cls-2" d="M421.3,721.89a5.24,5.24,0,0,1-3.7-1.48A5,5,0,0,1,416,716.6V639.66H400a5.07,5.07,0,0,1-5.28-5.29V617.25A5.07,5.07,0,0,1,400,612H416V605.2q0-14.37,5.6-23.15a31.57,31.57,0,0,1,16-12.68q10.35-3.92,24.73-3.91H478.8a5.22,5.22,0,0,1,3.7,1.48,4.94,4.94,0,0,1,1.59,3.8v17.12a5,5,0,0,1-1.59,3.81,5.22,5.22,0,0,1-3.7,1.48H464c-4.8,0-8.14,1.13-10.05,3.38s-2.85,5.5-2.85,9.73V612h25.58a5.29,5.29,0,0,1,3.7,1.48,5,5,0,0,1,1.58,3.81v17.12a5,5,0,0,1-1.58,3.81,5.29,5.29,0,0,1-3.7,1.48H451.11V716.6a5.07,5.07,0,0,1-5.28,5.29Z" transform="translate(-4.02)"/><path class="cls-2" d="M514.31,762.05a4.31,4.31,0,0,1-4.43-4.44,8.58,8.58,0,0,1,.1-1.16,5.25,5.25,0,0,1,.53-1.58L527,715.12l-40.59-96a6.66,6.66,0,0,1-.63-2.54,6.94,6.94,0,0,1,1.69-3.27,4.12,4.12,0,0,1,3.17-1.38h24.1a5.59,5.59,0,0,1,4.12,1.38,6.72,6.72,0,0,1,1.8,3.06L545,677.92,569.7,616.4a11.73,11.73,0,0,1,2.22-3.06A5.57,5.57,0,0,1,576,612h23.68a4.44,4.44,0,0,1,3.27,1.38,4.24,4.24,0,0,1,1.38,3.06,8.13,8.13,0,0,1-.64,2.75L543.91,757.61a8.07,8.07,0,0,1-2.11,3.07,6,6,0,0,1-4.23,1.37Z" transform="translate(-4.02)"/><path class="cls-2" d="M663.14,724q-15.66,0-27.7-5.7a45.68,45.68,0,0,1-19.13-16.6q-7.08-10.89-7.71-26.11-.23-3.37-.22-8.56t.22-8.56q.63-15.44,7.61-26.32a44.7,44.7,0,0,1,19.13-16.59q12.15-5.71,27.8-5.71,14.58,0,24.94,4.12A53.35,53.35,0,0,1,705,624.23a46,46,0,0,1,9.83,12.57q3.28,6.45,3.49,11.31a4.28,4.28,0,0,1-1.48,3.7A5.43,5.43,0,0,1,713,653.4H686.18a5.46,5.46,0,0,1-3.6-1.06,9.68,9.68,0,0,1-2.32-3.17q-2.53-6.55-6.45-9.3a17.08,17.08,0,0,0-10-2.75q-8.46,0-13,5.5t-5,16.91q-.21,8.46,0,15,.42,11.63,5,16.91t13,5.28q6.56,0,10.36-2.75t6.13-9.3a9.9,9.9,0,0,1,2.32-3.17,5.52,5.52,0,0,1,3.6-1H713a5.42,5.42,0,0,1,3.81,1.58,4.29,4.29,0,0,1,1.48,3.7,27.51,27.51,0,0,1-2.11,8.35,44,44,0,0,1-5.92,10A46.85,46.85,0,0,1,699.81,714a53.79,53.79,0,0,1-15.54,7.3A73.64,73.64,0,0,1,663.14,724Z" transform="translate(-4.02)"/><path class="cls-2" d="M767.14,724a46.36,46.36,0,0,1-20.4-4.33,36.74,36.74,0,0,1-14.27-11.73,28,28,0,0,1-5.28-16.7q0-15,12.26-23.78t32.55-12l26.43-4v-3q0-7.62-3.17-11.63t-11.63-4a17.84,17.84,0,0,0-9.62,2.33,16.17,16.17,0,0,0-5.81,6.34,6.09,6.09,0,0,1-5.29,2.75H739.24a4.64,4.64,0,0,1-3.6-1.38,3.93,3.93,0,0,1-1-3.27c0-2.54.95-5.46,2.85-8.78a37.12,37.12,0,0,1,8.77-9.83,48.56,48.56,0,0,1,15.22-8q9.3-3.16,22.41-3.17,13.74,0,23.47,3.17a40.92,40.92,0,0,1,15.74,8.88,36.09,36.09,0,0,1,9,13.42,47.26,47.26,0,0,1,3,17V716.6a5,5,0,0,1-1.59,3.81,5.22,5.22,0,0,1-3.7,1.48H805.19a5.07,5.07,0,0,1-5.28-5.29v-7.39a30.87,30.87,0,0,1-7.4,7.39A38,38,0,0,1,781.62,722,47.25,47.25,0,0,1,767.14,724Zm9.94-24.1a23.14,23.14,0,0,0,11.09-2.64A18.59,18.59,0,0,0,796,689q2.85-5.61,2.85-14.06v-3l-18,3.17q-9.93,1.7-14.48,5.18t-4.54,8.14a9.24,9.24,0,0,0,2.11,6.13,13.75,13.75,0,0,0,5.5,3.91A20,20,0,0,0,777.08,699.9Z" transform="translate(-4.02)"/><path class="cls-2" d="M861,721.89a5.07,5.07,0,0,1-5.29-5.29V617.25a5.29,5.29,0,0,1,1.48-3.7A5,5,0,0,1,861,612h24.31a4.94,4.94,0,0,1,3.8,1.59,5.24,5.24,0,0,1,1.48,3.7v8.45a39.67,39.67,0,0,1,13.64-10.14,42.71,42.71,0,0,1,17.86-3.6h9.3a5.27,5.27,0,0,1,3.7,1.48,5,5,0,0,1,1.59,3.81V639a5.44,5.44,0,0,1-5.29,5.29h-20.5q-8.67,0-13.43,4.75t-4.75,13.43V716.6a5,5,0,0,1-1.59,3.81,5.49,5.49,0,0,1-3.91,1.48Z" transform="translate(-4.02)"/></g></g></svg>