<svg xmlns="http://www.w3.org/2000/svg" viewBox="0 0 538.78 455.43"><defs><style>.cls-1{fill:#fff;fill-rule:evenodd;}</style></defs><title>Asset 3</title><g id="Layer_2" data-name="Layer 2"><g id="Layer_1-2" data-name="Layer 1"><path id="Fill-1" class="cls-1" d="M43,116.16H0V.22C34.78.22,80.82-1.15,117,3c60.7,7.5,102.64,39.21,127.54,95.13Q354,353.16,370,410.78c-8.52,10.91-14,17.39-14.32,18.07-25.23,31-70.93,35.47-102,10.23a70.48,70.48,0,0,1-20.46-27.28l-102.64-238A95.71,95.71,0,0,0,43,116.16Z"/><path id="Fill-4" class="cls-1" d="M538.78,101.84c-.34,1.7-31.37,74-169.14,308.94-24.21-70.25-39.95-121-52-154.47L398,101.84Z"/></g></g></svg>