<svg xmlns="http://www.w3.org/2000/svg" viewBox="0 0 932.66 196.6"><defs><style>.cls-1{fill:#40b38d;}</style></defs><title>Asset 2</title><g id="Layer_2" data-name="Layer 2"><g id="Layer_1-2" data-name="Layer 1"><path class="cls-1" d="M51.58,179.68c-2.11,0-3.67-.52-4.65-1.58a15.73,15.73,0,0,1-2.54-3.7L4.44,76.31A4.18,4.18,0,0,1,4,74.41a4.47,4.47,0,0,1,1.37-3.28,4.76,4.76,0,0,1,3.49-1.37H32.77A5.68,5.68,0,0,1,37,71.24a7.1,7.1,0,0,1,1.91,3l23.88,64.9,24.1-64.9a7,7,0,0,1,1.91-3A5.68,5.68,0,0,1,93,69.76H116.9a4.83,4.83,0,0,1,3.38,1.37,4.32,4.32,0,0,1,1.48,3.28,4.18,4.18,0,0,1-.42,1.9L81.39,174.4A11.12,11.12,0,0,1,79,178.1c-1.06,1.06-2.72,1.58-5,1.58Z" transform="translate(-4.02 -23.25)"/><path class="cls-1" d="M182,181.8q-24.94,0-39.74-13.53T126.84,128.1v-7.4q.63-16.7,7.5-28.64a45.49,45.49,0,0,1,19-18.18q12.15-6.22,28.43-6.24,18.6,0,30.76,7.4a47.1,47.1,0,0,1,18.28,20.09q6.14,12.68,6.13,29v5.07a5,5,0,0,1-1.58,3.81,5.3,5.3,0,0,1-3.7,1.48H164v1.47a35.12,35.12,0,0,0,2.12,11.21,17.17,17.17,0,0,0,5.91,8,15.91,15.91,0,0,0,9.73,3,16.19,16.19,0,0,0,7.08-1.37,18.79,18.79,0,0,0,4.76-3.17,39.16,39.16,0,0,0,3-3.07,10.8,10.8,0,0,1,3.06-2.64,9.57,9.57,0,0,1,3.7-.53h26.21a5.25,5.25,0,0,1,3.49,1.16,3.56,3.56,0,0,1,1.16,3.28c-.14,2.4-1.34,5.28-3.59,8.67a43.73,43.73,0,0,1-9.83,10,53.67,53.67,0,0,1-16.17,8.14A73.19,73.19,0,0,1,182,181.8Zm-18-68.28h35.73v-.43a32,32,0,0,0-2-11.83,16.33,16.33,0,0,0-6.13-7.83,17.34,17.34,0,0,0-9.83-2.74,16.32,16.32,0,0,0-9.62,2.74,17.41,17.41,0,0,0-6,7.83A30.4,30.4,0,0,0,164,113.09Z" transform="translate(-4.02 -23.25)"/><path class="cls-1" d="M259,179.68a5.07,5.07,0,0,1-5.29-5.28V75a5.26,5.26,0,0,1,1.48-3.7A5,5,0,0,1,259,69.76h24.31a5,5,0,0,1,3.8,1.58,5.26,5.26,0,0,1,1.48,3.7V83.5a39.57,39.57,0,0,1,13.64-10.15,42.84,42.84,0,0,1,17.86-3.59h9.3a5.24,5.24,0,0,1,3.7,1.48,5,5,0,0,1,1.59,3.8V96.82a5.42,5.42,0,0,1-5.29,5.28H308.84q-8.65,0-13.42,4.76t-4.75,13.42V174.4a4.94,4.94,0,0,1-1.59,3.8,5.5,5.5,0,0,1-3.91,1.48Z" transform="translate(-4.02 -23.25)"/><path class="cls-1" d="M351.55,53.9a5.07,5.07,0,0,1-5.29-5.28V29.8a5.52,5.52,0,0,1,1.48-3.91,5,5,0,0,1,3.81-1.58H376.7a5.41,5.41,0,0,1,5.5,5.49V48.62a4.94,4.94,0,0,1-1.59,3.8,5.49,5.49,0,0,1-3.91,1.48Zm.21,125.78a5.07,5.07,0,0,1-5.29-5.28V75a5.07,5.07,0,0,1,5.29-5.28H376.7a5.24,5.24,0,0,1,3.7,1.48A5,5,0,0,1,382,75V174.4a4.94,4.94,0,0,1-1.59,3.8,5.24,5.24,0,0,1-3.7,1.48Z" transform="translate(-4.02 -23.25)"/><path class="cls-1" d="M421.3,179.68a5.24,5.24,0,0,1-3.7-1.48,5,5,0,0,1-1.58-3.8V97.45H400a5.07,5.07,0,0,1-5.28-5.28V75A5.07,5.07,0,0,1,400,69.76H416V63q0-14.37,5.6-23.14a31.53,31.53,0,0,1,16-12.69q10.35-3.9,24.73-3.91H478.8a5.27,5.27,0,0,1,3.7,1.48,5,5,0,0,1,1.59,3.81V45.66a4.94,4.94,0,0,1-1.59,3.8,5.22,5.22,0,0,1-3.7,1.48H464c-4.8,0-8.14,1.13-10.05,3.39s-2.85,5.49-2.85,9.72v5.71h25.58a5.24,5.24,0,0,1,3.7,1.48A5,5,0,0,1,482,75V92.17a4.94,4.94,0,0,1-1.58,3.8,5.24,5.24,0,0,1-3.7,1.48H451.11v77a5.07,5.07,0,0,1-5.28,5.28Z" transform="translate(-4.02 -23.25)"/><path class="cls-1" d="M514.31,219.85a4.32,4.32,0,0,1-4.43-4.44,8.46,8.46,0,0,1,.1-1.16,5.21,5.21,0,0,1,.53-1.59L527,172.92,486.41,77a6.7,6.7,0,0,1-.63-2.54,6.93,6.93,0,0,1,1.69-3.28,4.14,4.14,0,0,1,3.17-1.37h24.1a5.63,5.63,0,0,1,4.12,1.37,6.7,6.7,0,0,1,1.8,3.07L545,135.71,569.7,74.2a11.61,11.61,0,0,1,2.22-3.07A5.61,5.61,0,0,1,576,69.76h23.68A4.47,4.47,0,0,1,603,71.13a4.25,4.25,0,0,1,1.38,3.07,8.18,8.18,0,0,1-.64,2.75L543.91,215.41a8,8,0,0,1-2.11,3.06,6,6,0,0,1-4.23,1.38Z" transform="translate(-4.02 -23.25)"/><path class="cls-1" d="M663.14,181.8q-15.66,0-27.7-5.71a45.58,45.58,0,0,1-19.13-16.59q-7.08-10.89-7.71-26.11c-.15-2.25-.22-5.11-.22-8.56s.07-6.31.22-8.56q.63-15.43,7.61-26.32a44.79,44.79,0,0,1,19.13-16.6q12.15-5.7,27.8-5.71,14.58,0,24.94,4.13A53.16,53.16,0,0,1,705,82a46,46,0,0,1,9.83,12.58q3.28,6.45,3.49,11.31a4.29,4.29,0,0,1-1.48,3.7,5.46,5.46,0,0,1-3.81,1.58H686.18a5.46,5.46,0,0,1-3.6-1.06,9.68,9.68,0,0,1-2.32-3.17q-2.53-6.54-6.45-9.3a17.08,17.08,0,0,0-10-2.75q-8.46,0-13,5.5t-5,16.91q-.21,8.46,0,15,.42,11.63,5,16.91t13,5.29q6.56,0,10.36-2.75t6.13-9.3a9.68,9.68,0,0,1,2.32-3.17,5.46,5.46,0,0,1,3.6-1.06H713a5.43,5.43,0,0,1,3.81,1.59,4.28,4.28,0,0,1,1.48,3.7,27.53,27.53,0,0,1-2.11,8.34,43.88,43.88,0,0,1-5.92,10.05,47.08,47.08,0,0,1-10.47,9.83,53.78,53.78,0,0,1-15.54,7.29A73.28,73.28,0,0,1,663.14,181.8Z" transform="translate(-4.02 -23.25)"/><path class="cls-1" d="M767.14,181.8a46.37,46.37,0,0,1-20.4-4.34,36.57,36.57,0,0,1-14.27-11.73,28,28,0,0,1-5.28-16.7q0-15,12.26-23.78T772,113.31l26.43-4v-3q0-7.6-3.17-11.63t-11.63-4A17.84,17.84,0,0,0,774,93a16.24,16.24,0,0,0-5.81,6.34,6.06,6.06,0,0,1-5.29,2.75H739.24a4.64,4.64,0,0,1-3.6-1.37,4,4,0,0,1-1-3.28q0-3.81,2.85-8.77a37,37,0,0,1,8.77-9.83,48.36,48.36,0,0,1,15.22-8q9.3-3.18,22.41-3.18,13.74,0,23.47,3.18a40.91,40.91,0,0,1,15.74,8.87,36.13,36.13,0,0,1,9,13.43,47.17,47.17,0,0,1,3,17V174.4a4.94,4.94,0,0,1-1.59,3.8,5.22,5.22,0,0,1-3.7,1.48H805.19a5.07,5.07,0,0,1-5.28-5.28V167a30.72,30.72,0,0,1-7.4,7.4,38.47,38.47,0,0,1-10.89,5.39A47.25,47.25,0,0,1,767.14,181.8Zm9.94-24.1a23.26,23.26,0,0,0,11.09-2.64,18.56,18.56,0,0,0,7.83-8.25q2.85-5.59,2.85-14.06v-3l-18,3.18q-9.93,1.68-14.48,5.17t-4.54,8.14a9.24,9.24,0,0,0,2.11,6.13,13.66,13.66,0,0,0,5.5,3.91A20,20,0,0,0,777.08,157.7Z" transform="translate(-4.02 -23.25)"/><path class="cls-1" d="M861,179.68a5.07,5.07,0,0,1-5.29-5.28V75a5.3,5.3,0,0,1,1.48-3.7A5,5,0,0,1,861,69.76h24.31a5,5,0,0,1,3.8,1.58,5.26,5.26,0,0,1,1.48,3.7V83.5a39.57,39.57,0,0,1,13.64-10.15,42.87,42.87,0,0,1,17.86-3.59h9.3a5.22,5.22,0,0,1,3.7,1.48,5,5,0,0,1,1.59,3.8V96.82a5.42,5.42,0,0,1-5.29,5.28h-20.5q-8.67,0-13.43,4.76t-4.75,13.42V174.4a4.94,4.94,0,0,1-1.59,3.8,5.49,5.49,0,0,1-3.91,1.48Z" transform="translate(-4.02 -23.25)"/></g></g></svg>