<?xml version="1.0" encoding="UTF-8"?>
<svg width="226px" height="192px" viewBox="0 0 226 192" version="1.1" xmlns="http://www.w3.org/2000/svg" xmlns:xlink="http://www.w3.org/1999/xlink">
    <title>logo</title>
    <g id="Page-1" stroke="none" stroke-width="1" fill="none" fill-rule="evenodd">
        <g id="iPhone-11-Copy" transform="translate(-94.000000, -321.000000)" fill="white">
            <g id="logo" transform="translate(94.000000, 321.000000)">
                <g id="logotipo" transform="translate(27.000000, 0.000000)">
                    <path d="M12.6,34.1 L0,34.1 C0,19 0,9.7 0,0.1 C10.2,0.1 23.7,-0.3 34.3,0.9 C52.1,3.1 64.4,12.4 71.7,28.8 C93.1,78.6666667 105.366667,109.233333 108.5,120.5 C106,123.7 104.4,125.6 104.3,125.8 C96.9,134.9 83.5,136.2 74.4,128.8 C71.8,126.7 69.7,123.9 68.4,120.8 L38.3,51 C33.8,40.7 23.7,34.1 12.6,34.1 Z" id="Fill-1"></path>
                    <path d="M158,29.9 C157.9,30.4 148.8,51.6 108.4,120.5 C101.3,99.9 96.6825409,85.0264969 93.1582184,75.2 L116.7,29.9 L158,29.9 Z" id="Fill-4"></path>
                </g>
                <path d="M13.6,191.3 C15.4,191.3 17.1,191.2 18.9,191 L18.9,191 L27.5,160.2 L27.2,159.8 C26.3,159.5 25,159.3 23.4,159.3 C22.2,159.3 21.3,159.4 20.5,159.6 L20.5,159.6 L14.5,184.9 C14.2,184.9 14.1,184.7 14,184.3 C13.4,180.8 12.8,178 12.3,175.9 L12.3,175.9 L8.8,162.8 C8.5,161.5 8,160.6 7.4,160 C6.8,159.4 5.8,159.1 4.5,159.1 C3.4,159.1 2.1,159.5 0.4,160.2 L0.4,160.2 L8.1,188 C8.5,189.3 9.1,190.2 9.9,190.6 C10.6,191.1 11.9,191.3 13.6,191.3 Z M47.1,191.1 C49.9,191.1 51.4,189.9 51.8,187.6 C51.9,187 51.9,186.1 51.9,185 L51.9,185 L41.3,185 C40.4,185 39.3,185 37.9,185.1 L37.9,185.1 L37.9,185.1 L37.9,181.8 L37.9,178.3 L48.1,178.3 C48.4,177.4 48.5,176.4 48.5,175.3 C48.5,174.2 48.4,173.2 48.1,172.4 L48.1,172.4 L41.1,172.4 C39.8,172.4 38.8,172.4 38,172.4 L38,172.4 L38,169.2 L38,165.9 L50.6,165.9 C51,164.8 51.2,163.7 51.2,162.6 C51.2,161.6 51.1,160.6 50.9,159.7 L50.9,159.7 L30.9,159.7 L30.6,160 L30.6,187 C30.6,188.3 31,189.4 31.7,190.1 C32.5,190.9 33.5,191.2 34.8,191.2 L34.8,191.2 L47.1,191.2 L47.1,191.1 Z M75.4,191.4 C76.5,191.4 77.5,191.2 78.4,190.8 C79.3,190.4 80,189.9 80.5,189.3 C79.5,188.6 78.7,187.4 78.2,185.9 L78.2,185.9 L76.8,182 C76,179.8 74.9,178.4 73.3,177.8 C74,177.5 74.7,177.1 75.4,176.6 C76.1,176.1 76.7,175.4 77.2,174.7 C77.7,174 78.1,173.2 78.4,172.3 C78.7,171.4 78.9,170.4 78.9,169.4 C78.9,167.7 78.6,166.3 78.1,165 C77.6,163.7 76.8,162.7 75.8,161.9 C74.8,161.1 73.7,160.5 72.3,160 C70.9,159.5 69.4,159.4 67.7,159.4 C66.7,159.4 65.2,159.4 63.4,159.4 C61.6,159.4 59.3,159.5 56.7,159.5 L56.7,159.5 L56.4,159.8 L56.4,191 C57.4,191.2 58.6,191.3 60,191.3 C61.4,191.3 62.7,191.2 63.7,191 L63.7,191 L63.7,179.5 L65.6,179.5 C66.7,179.5 67.6,179.7 68.2,180.2 C68.8,180.7 69.2,181.4 69.6,182.3 L69.6,182.3 L71.3,187.1 C71.8,188.7 72.4,189.8 73,190.4 C73.4,191.1 74.3,191.4 75.4,191.4 Z M64.1,173.8 L63.6,173.8 L63.6,164.8 C64,164.8 64.5,164.8 65.1,164.8 L65.1,164.8 L67,164.8 C69.9,164.8 71.3,166.3 71.3,169.3 C71.3,170.4 71.1,171.2 70.8,171.8 C70.5,172.4 70,172.8 69.4,173.2 C68.8,173.5 68,173.7 67,173.8 C66,173.8 64.8,173.9 63.5,173.9 L64.1,173.8 Z M87.7,191.3 C89.2,191.3 90.4,191.2 91.4,191 L91.4,191 L91.4,159.6 C90.4,159.4 89.2,159.3 87.7,159.3 C86.2,159.3 85,159.4 84,159.6 L84,159.6 L84,191 C85,191.2 86.2,191.3 87.7,191.3 Z M101.5,191.3 C103,191.3 104.2,191.2 105.2,191 L105.2,191 L105.2,178.4 L115,178.4 C115.2,177.5 115.4,176.5 115.4,175.4 C115.4,174.3 115.3,173.3 115,172.4 L115,172.4 L105.2,172.4 L105.2,169.5 L105.2,165.9 L114.3,165.9 C115.6,165.9 116.6,165.6 117.3,165.1 C117.9,164.5 118.2,163.7 118.2,162.5 C118.2,161.3 118.1,160.4 117.9,159.6 L117.9,159.6 L98.1,159.6 L97.8,159.9 L97.8,191 C98.8,191.2 100,191.3 101.5,191.3 Z M130.7,191.3 C132.2,191.3 133.4,191.2 134.4,191 L134.4,191 L134.4,181.3 L143.3,160.2 L143,159.8 C142,159.4 140.9,159.2 139.5,159.2 C138.2,159.2 137.2,159.3 136.4,159.5 L136.4,159.5 L133.3,167.3 C132.3,169.9 131.5,172.2 131,174.2 L131,174.2 L130.7,174.2 C130.1,171.8 129.4,169.6 128.6,167.6 L128.6,167.6 L126.4,162.1 C126,161 125.5,160.3 124.9,159.8 C124.3,159.4 123.4,159.1 122.1,159.1 C120.8,159.1 119.5,159.5 118.1,160.3 L118.1,160.3 L127,181 L127,190.8 C128,191.2 129.2,191.3 130.7,191.3 Z M156.2,191.7 C157.4,191.7 158.6,191.6 159.8,191.3 C161,191 162.1,190.7 163.2,190.3 C164.3,189.9 165.3,189.4 166.2,188.8 C167.1,188.2 168,187.6 168.7,186.9 C168.5,186.1 168.1,185.2 167.5,184.3 C166.9,183.4 166.1,182.7 165.4,182.2 C163.9,183.3 162.4,184.1 161.1,184.6 C159.8,185.1 158.6,185.4 157.5,185.4 C155.4,185.4 153.9,184.6 152.8,182.9 C151.7,181.2 151.2,178.7 151.2,175.3 C151.2,171.9 151.6,169.3 152.5,167.5 C153.4,165.7 154.8,164.9 156.7,164.9 C160.1,164.9 161.8,167.2 161.8,171.7 L161.8,171.7 L161.8,172.3 C162.8,172.6 163.8,172.7 164.6,172.7 C167.4,172.7 168.8,171.3 168.8,168.6 C168.8,167.3 168.5,166 167.9,164.8 C167.3,163.6 166.5,162.6 165.5,161.8 C164.4,160.9 163.2,160.3 161.7,159.8 C160.2,159.3 158.5,159.1 156.7,159.1 C154.9,159.1 153.2,159.4 151.6,160.1 C150,160.8 148.6,161.8 147.4,163.2 C146.2,164.6 145.3,166.3 144.6,168.4 C143.9,170.5 143.6,172.9 143.6,175.6 C143.6,177.7 143.8,179.8 144.3,181.7 C144.7,183.7 145.5,185.4 146.5,186.9 C147.5,188.4 148.8,189.6 150.4,190.5 C151.8,191.2 153.8,191.7 156.2,191.7 Z M194.4,191.4 C195.7,191.4 197,191.1 198,190.5 L198,190.5 L188.1,159.6 C187,159.4 185.6,159.3 183.8,159.3 C182.2,159.3 180.8,159.4 179.6,159.6 L179.6,159.6 L169.5,190.5 L169.7,190.9 C170.6,191.2 171.8,191.4 173.3,191.4 C174.6,191.4 175.6,191.3 176.4,191.1 L176.4,191.1 L178.4,184.4 C178.8,184.4 179.4,184.4 180.2,184.4 L187,184.4 C187.7,184.4 188.2,184.4 188.5,184.4 L188.5,184.4 L189.4,187.4 C189.9,189 190.4,190 191.1,190.6 C191.8,191.2 192.8,191.4 194.4,191.4 Z M186.9,178.6 C186.7,178.6 186.4,178.6 186,178.6 C185.6,178.6 185.3,178.6 185.2,178.6 L185.2,178.6 L181.8,178.6 L180,178.6 L181.1,175.1 C182.3,170.6 183.1,167.6 183.3,166.3 L183.3,166.3 L183.6,166.3 C184.6,170 185.4,173.2 186.1,175.8 L186.1,175.8 L186.9,178.6 Z M220.3,191.4 C221.4,191.4 222.4,191.2 223.3,190.8 C224.2,190.4 224.9,189.9 225.4,189.3 C224.4,188.6 223.6,187.4 223.1,185.9 L223.1,185.9 L221.7,182 C220.9,179.8 219.8,178.4 218.2,177.8 C218.9,177.5 219.6,177.1 220.3,176.6 C221,176.1 221.6,175.4 222.1,174.7 C222.6,174 223,173.2 223.3,172.3 C223.6,171.4 223.8,170.4 223.8,169.4 C223.8,167.7 223.5,166.3 223,165 C222.5,163.7 221.7,162.7 220.7,161.9 C219.7,161.1 218.6,160.5 217.2,160 C215.8,159.6 214.3,159.4 212.6,159.4 C211.6,159.4 210.1,159.4 208.3,159.4 C206.5,159.4 204.2,159.5 201.6,159.5 L201.6,159.5 L201.3,159.8 L201.3,191 C202.3,191.2 203.5,191.3 204.9,191.3 C206.3,191.3 207.6,191.2 208.6,191 L208.6,191 L208.6,179.5 L210.5,179.5 C211.6,179.5 212.5,179.7 213.1,180.2 C213.7,180.7 214.1,181.4 214.5,182.3 L214.5,182.3 L216.2,187.1 C216.7,188.7 217.3,189.8 217.9,190.4 C218.3,191.1 219.2,191.4 220.3,191.4 Z M209,173.8 L208.5,173.8 L208.5,164.8 C208.9,164.8 209.4,164.8 210,164.8 L210,164.8 L211.9,164.8 C214.8,164.8 216.2,166.3 216.2,169.3 C216.2,170.4 216,171.2 215.7,171.8 C215.4,172.4 214.9,172.8 214.3,173.2 C213.7,173.5 212.9,173.7 211.9,173.8 C210.9,173.8 209.7,173.9 208.4,173.9 L209,173.8 Z" id="VERIFYCAR" fill-rule="nonzero"></path>
            </g>
        </g>
    </g>
</svg>
